<svg width="667" height="162" viewBox="0 0 667 162" fill="none" xmlns="http://www.w3.org/2000/svg">
<path d="M59.184 130.304C50.448 130.304 42.672 128.624 35.856 125.264C29.136 121.904 23.856 117.248 20.016 111.296C16.272 105.344 14.4 98.528 14.4 90.848V21.152C14.4 19.52 14.928 18.176 15.984 17.12C17.04 16.064 18.384 15.536 20.016 15.536C21.648 15.536 22.992 16.064 24.048 17.12C25.104 18.176 25.632 19.52 25.632 21.152V90.848C25.632 96.512 27.024 101.504 29.808 105.824C32.688 110.144 36.672 113.552 41.76 116.048C46.848 118.448 52.656 119.648 59.184 119.648C65.616 119.648 71.328 118.448 76.32 116.048C81.312 113.552 85.2 110.144 87.984 105.824C90.864 101.504 92.304 96.512 92.304 90.848V21.152C92.304 19.52 92.832 18.176 93.888 17.12C94.944 16.064 96.288 15.536 97.92 15.536C99.648 15.536 100.992 16.064 101.952 17.12C103.008 18.176 103.536 19.52 103.536 21.152V90.848C103.536 98.528 101.616 105.344 97.776 111.296C94.032 117.248 88.8 121.904 82.08 125.264C75.456 128.624 67.824 130.304 59.184 130.304Z" fill="#843EC1"/>
<path d="M198.48 128C196.848 128 195.504 127.472 194.448 126.416C193.392 125.36 192.864 124.064 192.864 122.528V85.088C192.864 79.136 191.712 74.24 189.408 70.4C187.2 66.56 184.128 63.68 180.192 61.76C176.352 59.84 171.984 58.88 167.088 58.88C162.384 58.88 158.112 59.792 154.272 61.616C150.528 63.44 147.552 65.936 145.344 69.104C143.136 72.272 142.032 75.872 142.032 79.904H134.112C134.304 73.856 135.936 68.48 139.008 63.776C142.08 58.976 146.16 55.232 151.248 52.544C156.336 49.76 162 48.368 168.24 48.368C175.056 48.368 181.152 49.808 186.528 52.688C191.904 55.472 196.128 59.6 199.2 65.072C202.368 70.544 203.952 77.216 203.952 85.088V122.528C203.952 124.064 203.424 125.36 202.368 126.416C201.312 127.472 200.016 128 198.48 128ZM136.56 128C134.832 128 133.44 127.52 132.384 126.56C131.424 125.504 130.944 124.16 130.944 122.528V54.848C130.944 53.12 131.424 51.776 132.384 50.816C133.44 49.76 134.832 49.232 136.56 49.232C138.192 49.232 139.488 49.76 140.448 50.816C141.504 51.776 142.032 53.12 142.032 54.848V122.528C142.032 124.16 141.504 125.504 140.448 126.56C139.488 127.52 138.192 128 136.56 128ZM236.318 128C234.59 128 233.198 127.52 232.142 126.56C231.182 125.504 230.702 124.112 230.702 122.384V54.848C230.702 53.12 231.182 51.776 232.142 50.816C233.198 49.76 234.59 49.232 236.318 49.232C237.95 49.232 239.246 49.76 240.206 50.816C241.262 51.776 241.79 53.12 241.79 54.848V122.384C241.79 124.112 241.262 125.504 240.206 126.56C239.246 127.52 237.95 128 236.318 128ZM236.174 34.256C234.062 34.256 232.238 33.488 230.702 31.952C229.166 30.416 228.398 28.544 228.398 26.336C228.398 23.936 229.166 22.064 230.702 20.72C232.334 19.28 234.206 18.56 236.318 18.56C238.334 18.56 240.11 19.28 241.646 20.72C243.278 22.064 244.094 23.936 244.094 26.336C244.094 28.544 243.326 30.416 241.79 31.952C240.254 33.488 238.382 34.256 236.174 34.256ZM296.951 128C294.647 128 292.919 126.752 291.767 124.256L259.799 56.432C259.223 55.184 259.175 53.936 259.655 52.688C260.135 51.44 261.095 50.48 262.535 49.808C263.879 49.136 265.175 49.04 266.423 49.52C267.671 50 268.631 50.864 269.303 52.112L299.975 118.496H294.07L324.311 52.112C324.887 50.768 325.847 49.904 327.191 49.52C328.631 49.04 330.023 49.088 331.367 49.664C332.711 50.336 333.623 51.344 334.103 52.688C334.583 53.936 334.535 55.136 333.959 56.288L302.423 124.256C301.271 126.752 299.447 128 296.951 128ZM382.516 128.72C374.74 128.72 367.828 127.04 361.78 123.68C355.828 120.224 351.124 115.472 347.668 109.424C344.308 103.376 342.628 96.464 342.628 88.688C342.628 80.816 344.212 73.904 347.38 67.952C350.644 61.904 355.108 57.152 360.772 53.696C366.436 50.24 372.964 48.512 380.356 48.512C387.652 48.512 393.988 50.192 399.364 53.552C404.836 56.816 409.06 61.376 412.036 67.232C415.012 73.088 416.5 79.76 416.5 87.248C416.5 88.784 416.02 90.032 415.06 90.992C414.1 91.856 412.852 92.288 411.316 92.288H350.116V83.072H412.468L406.276 87.536C406.372 81.968 405.364 76.976 403.252 72.56C401.14 68.144 398.116 64.688 394.18 62.192C390.34 59.696 385.732 58.448 380.356 58.448C374.884 58.448 370.084 59.744 365.956 62.336C361.828 64.928 358.612 68.528 356.308 73.136C354.1 77.648 352.996 82.832 352.996 88.688C352.996 94.544 354.244 99.728 356.74 104.24C359.332 108.752 362.836 112.304 367.252 114.896C371.668 117.488 376.756 118.784 382.516 118.784C385.972 118.784 389.428 118.208 392.884 117.056C396.436 115.808 399.268 114.272 401.38 112.448C402.436 111.584 403.636 111.152 404.98 111.152C406.324 111.056 407.476 111.392 408.436 112.16C409.684 113.312 410.308 114.56 410.308 115.904C410.404 117.248 409.876 118.4 408.724 119.36C405.556 122.048 401.524 124.304 396.628 126.128C391.732 127.856 387.028 128.72 382.516 128.72ZM502.793 128C501.161 128 499.817 127.472 498.761 126.416C497.705 125.36 497.177 124.064 497.177 122.528V85.088C497.177 79.136 496.025 74.24 493.721 70.4C491.513 66.56 488.441 63.68 484.505 61.76C480.665 59.84 476.297 58.88 471.401 58.88C466.697 58.88 462.425 59.792 458.585 61.616C454.841 63.44 451.865 65.936 449.657 69.104C447.449 72.272 446.345 75.872 446.345 79.904H438.425C438.617 73.856 440.249 68.48 443.321 63.776C446.393 58.976 450.473 55.232 455.561 52.544C460.649 49.76 466.313 48.368 472.553 48.368C479.369 48.368 485.465 49.808 490.841 52.688C496.217 55.472 500.441 59.6 503.513 65.072C506.681 70.544 508.265 77.216 508.265 85.088V122.528C508.265 124.064 507.737 125.36 506.681 126.416C505.625 127.472 504.329 128 502.793 128ZM440.873 128C439.145 128 437.753 127.52 436.697 126.56C435.737 125.504 435.257 124.16 435.257 122.528V54.848C435.257 53.12 435.737 51.776 436.697 50.816C437.753 49.76 439.145 49.232 440.873 49.232C442.505 49.232 443.801 49.76 444.761 50.816C445.817 51.776 446.345 53.12 446.345 54.848V122.528C446.345 124.16 445.817 125.504 444.761 126.56C443.801 127.52 442.505 128 440.873 128ZM563.526 128C558.438 128 553.878 126.8 549.846 124.4C545.91 122 542.79 118.736 540.486 114.608C538.182 110.384 537.03 105.584 537.03 100.208V29.792C537.03 28.16 537.51 26.816 538.47 25.76C539.526 24.704 540.87 24.176 542.502 24.176C544.134 24.176 545.478 24.704 546.534 25.76C547.59 26.816 548.118 28.16 548.118 29.792V100.208C548.118 105.104 549.558 109.136 552.438 112.304C555.318 115.376 559.014 116.912 563.526 116.912H567.414C568.95 116.912 570.198 117.44 571.158 118.496C572.118 119.552 572.598 120.896 572.598 122.528C572.598 124.16 572.022 125.504 570.87 126.56C569.718 127.52 568.278 128 566.55 128H563.526ZM527.67 61.76C526.23 61.76 525.03 61.328 524.07 60.464C523.11 59.504 522.63 58.352 522.63 57.008C522.63 55.568 523.11 54.416 524.07 53.552C525.03 52.592 526.23 52.112 527.67 52.112H564.39C565.83 52.112 567.03 52.592 567.99 53.552C568.95 54.416 569.43 55.568 569.43 57.008C569.43 58.352 568.95 59.504 567.99 60.464C567.03 61.328 565.83 61.76 564.39 61.76H527.67ZM626.36 128.72C618.584 128.72 611.672 127.04 605.624 123.68C599.672 120.224 594.967 115.472 591.512 109.424C588.152 103.376 586.472 96.464 586.472 88.688C586.472 80.816 588.056 73.904 591.224 67.952C594.488 61.904 598.952 57.152 604.616 53.696C610.28 50.24 616.808 48.512 624.2 48.512C631.496 48.512 637.832 50.192 643.208 53.552C648.68 56.816 652.904 61.376 655.88 67.232C658.856 73.088 660.344 79.76 660.344 87.248C660.344 88.784 659.864 90.032 658.904 90.992C657.944 91.856 656.696 92.288 655.16 92.288H593.96V83.072H656.312L650.12 87.536C650.216 81.968 649.208 76.976 647.096 72.56C644.984 68.144 641.96 64.688 638.024 62.192C634.184 59.696 629.576 58.448 624.2 58.448C618.728 58.448 613.928 59.744 609.8 62.336C605.672 64.928 602.456 68.528 600.152 73.136C597.944 77.648 596.84 82.832 596.84 88.688C596.84 94.544 598.088 99.728 600.584 104.24C603.176 108.752 606.68 112.304 611.096 114.896C615.512 117.488 620.6 118.784 626.36 118.784C629.816 118.784 633.272 118.208 636.728 117.056C640.28 115.808 643.112 114.272 645.224 112.448C646.28 111.584 647.48 111.152 648.824 111.152C650.168 111.056 651.32 111.392 652.28 112.16C653.528 113.312 654.152 114.56 654.152 115.904C654.248 117.248 653.72 118.4 652.568 119.36C649.4 122.048 645.368 124.304 640.472 126.128C635.576 127.856 630.872 128.72 626.36 128.72Z" fill="#FFF77F"/>
<path d="M98 0L83.5662 25H112.434L98 0ZM100.5 35V22.5H95.5V35H100.5Z" fill="#843EC1"/>
</svg>
