<svg xmlns="http://www.w3.org/2000/svg" viewBox="0 0 414 300"><path d="M73 167.79l39.5 22.8 12.17-11.85v-42.5zM364.52 213.27l23.31 13.53a5.75 5.75 0 005.22 0l19.31-11.14c1.44-.84 1.44-2.18 0-3L389 199.14a5.8 5.8 0 00-5.23 0l-19.22 11.11c-1.47.83-1.47 2.18-.03 3.02z" fill-opacity=".15"/><path d="M321.72 42.29v18.92l-12.31-7.12v-4.72z" fill="#363687"/><path d="M409.39 210.15V102.34v-4.42a8.94 8.94 0 00-1.26-4.29l4.14-2.4a8.27 8.27 0 011.2 4v4.37a2 2 0 000 .28v107.89a4.7 4.7 0 01-2 3.7l-3.32 1.92c1.21-.71 1.24-2.46 1.24-3.24z" fill="#5c5cc4"/><path d="M405 90.39l-3.82-2.21L325 44.19l-.31-.14c-.11 0-.23-.08-.36-.13l-.24-.06h-.36a2.42 2.42 0 00-.47 0 3.59 3.59 0 00-.47 0 2.21 2.21 0 00-.46.08L322 44a.18.18 0 00-.09 0l-.14.05.05 12.38v4.77l.32 99.42a9.65 9.65 0 004.39 7.53l66.54 38.1 12 6.85c2.41 1.38 4.37.24 4.37-2.53V97.92a9.45 9.45 0 00-4.44-7.53z" fill="#4949a5"/><path d="M323.14 46.2l81 46.79a5 5 0 012.52 4.36v112.18a2.52 2.52 0 01-1.26 2.17l-10.53 6.08.15-116.61-83.51-48.26z" fill="#fff"/><path d="M406.71 97.35v112.18a2.5 2.5 0 01-1.26 2.17l-10.53 6.08.16-116.61 11-6.33a5.07 5.07 0 01.63 2.51z" fill="#dae6ea"/><path d="M312.56 51.12l9.65-5.56a2.56 2.56 0 012.33-.16c.56.32.43.92-.3 1.33l-9.64 5.57a2.62 2.62 0 01-2.33.16c-.57-.32-.44-.91.29-1.34z" fill="#192370"/><path d="M397.12 107.35v109.84a4.66 4.66 0 01-2.05 3.69l-3.32 1.92c1.31-.76 1.28-2.52 1.28-3.26V111.78v-4.4a8.8 8.8 0 00-1.28-4.31l4.17-2.41a8.37 8.37 0 011.2 4v2.65z" fill="#5c5cc4"/><path d="M393 220V107.38a9.65 9.65 0 00-4.37-7.56l-3.8-2.2-63.06-36.4-12-7-2.55-1.47a5.74 5.74 0 01-.88-.65 4 4 0 01-.35-.36 4.68 4.68 0 01-.27-.4 3.32 3.32 0 01-.13-.27 1.43 1.43 0 01-.09-.27.46.46 0 010-.19.58.58 0 010-.19.68.68 0 010-.25v119.26a9.61 9.61 0 004.39 7.53l78.87 45.56c2.31 1.41 4.24.28 4.24-2.52z" fill="#706edc"/><path d="M312.74 49.26l8.78-5.06a.93.93 0 01.2-.09.34.34 0 01.15-.06.18.18 0 01.09 0l.37-.11a2.46 2.46 0 01.46-.08 2.42 2.42 0 01.47 0 1.87 1.87 0 01.47 0h.36l.23.06a1.4 1.4 0 01.36.13l.31.14 76.19 44 3.82 2.2a8.81 8.81 0 013.09 3.25l4.15-2.4a8.39 8.39 0 00-2.9-3.06l-1.59-.91-.7-.41-.85-.5-.34-.19a2.72 2.72 0 00-.28-.15l-.23-.14h-.08L327.63 41a9.64 9.64 0 00-8.72 0l-11.72 6.76a3.13 3.13 0 00-1.81 2.44v.24a.58.58 0 000 .19.59.59 0 00.05.19 1.43 1.43 0 00.09.27c0 .09.08.18.13.27a2.35 2.35 0 00.27.4 2.85 2.85 0 00.34.36 5.39 5.39 0 00.89.65l2.54 1.47 12 7 63.07 36.4 3.8 2.2a8.86 8.86 0 013.08 3.25l4.17-2.41A8.23 8.23 0 00393 97.6l-1.59-.91-.69-.41-1.62-.93-.16-.09-67.17-38.78-9-5.22a1.05 1.05 0 01-.03-2z" fill="#8989e0"/><path d="M213.81 258.52l-17-9.82c-1.45-.83-1.45-2.18 0-3l101.05-58.35a5.82 5.82 0 015.24 0l72.47 41.82c1.44.84 1.44 2.19 0 3l-101.09 58.36a5.74 5.74 0 01-5.23 0l-30.87-17.82a27.39 27.39 0 01-10 1.77c-9.76 0-17.68-4.57-17.68-10.21a7.64 7.64 0 013.11-5.75z" fill-opacity=".15" fill-rule="evenodd"/><path d="M180.46 250.41l35.7-20.56c1.45-.84 1.44-2.18 0-3l-73-41.44a5.89 5.89 0 00-5.24 0l-35.09 20.14c-1.45.83-1.45 2.18 0 3l72.45 41.83a5.77 5.77 0 005.18.03z" fill-opacity=".15"/><path d="M115.16 74.88v5.5l-8.37 4.25v-5.9z" fill="#4c68a5"/><path d="M109.23 80.26l9.71-5 12.26 7.08-12.27 7.08z" fill="#fff"/><path d="M108.85 79.39c-1.13.65-1.07 1.74.13 2.43l5.34 6.61a4.68 4.68 0 004.23.09c1.13-.66 1.07-1.75-.13-2.44l-5.34-6.61a4.65 4.65 0 00-4.23-.08z" fill="#192370"/><path d="M124.68 92.06V138a5.78 5.78 0 01-2.61 4.53l-43.83 25.26a5.14 5.14 0 01-2.12.6L117 92.85a5.09 5.09 0 002.12-.59l2.95-1.71c1.44-.83 2.61-.15 2.61 1.51z" fill="#6f89d1"/><path d="M113.89 92.26l-6.7-7.4-6-3.44c-.54-.88-1.19-1.52-.85-2.23L59.85 154v.08c-.35.73-.44 2.34.55 2.9L73 167.79a5.53 5.53 0 003.11.6L117 92.85a5.63 5.63 0 01-3.11-.59z" fill="#7fa8e6"/><path d="M101.24 78.4c-1.44.83-1.09 1.76 0 3l12.65 10.84a5.8 5.8 0 005.23 0l11.13-6.42c1.44-.84 1.7-2 .57-2.69a5.26 5.26 0 00-4.66.33l-8.78 5.07a1.85 1.85 0 01-1.74 0l-8-8.12a.53.53 0 010-1l8.89-4.57c1.44-.84 1.7-2 .57-2.69a5.22 5.22 0 00-4.66.33z" fill="#aacaf9"/><path d="M190.08 19.34l-2-1.16-71.27 38.73v131a10.42 10.42 0 002.31-.26 7.87 7.87 0 002-.79l51.74-44a5.39 5.39 0 00.5-.33 9.73 9.73 0 003.86-7.22v-91.2l.53-5z" fill="#7c2549"/><path d="M190.09 19.34l-2-1.16L116.8 56.9v130.95a10.51 10.51 0 002.32-.26 8.49 8.49 0 002-.79l52.25-44.34 1.31-.75a9.65 9.65 0 004.35-7.55l-.41-90.88 12.69-11.6v-9.53a3.2 3.2 0 00-1.22-2.81z" fill="#7c2549"/><path d="M122.49 59.29l63.57-36.63a2.5 2.5 0 012.51 0l10.06 5.81-65.23 37.12z" fill="#fff"/><path d="M135.7 64.56c1.13-.65 1.07-1.74-.13-2.44l-7.89-4.56a4.71 4.71 0 00-4.23-.08c-1.13.66-1.06 1.75.13 2.44l7.89 4.56a4.71 4.71 0 004.23.08z" fill="#192370"/><path d="M206.41 28.76l-1.27-.76-.73-.42-71.26 38.75v131a8.83 8.83 0 004.35-1.05l65.84-38a9.67 9.67 0 004.36-7.55V31.59a3.22 3.22 0 00-1.29-2.83z" fill="#bf2878"/><path d="M115.27 183.41a9.64 9.64 0 004.36 7.55l9.16 5.29a9.43 9.43 0 004.36 1.05v-131l-17.88-8.65z" fill="#e7478d"/><path d="M135.08 63.67a1.67 1.67 0 00.23-.12l1.5-.87 1.78-1 4.93-2.85 1.26-.72 7.58-4.38 2.48-1.43 2.37-1.37c1.55-.89-7.86 4.57-6.44 3.76.36-.22.72-.42 1.06-.61l2-1.17 9.25-5.33 14.69-8.46 1.37-.79 19.7-11.37a4.64 4.64 0 014.17-.06l3.32 1.91c-1-.58-1.87-.38-3 .26l-.45.25-24.3 14-1.4.81-14.16 8.18L137.46 67a9 9 0 01-4.31 1 9.1 9.1 0 01-4.09-.89 2.34 2.34 0 01-.27-.15l-11.71-6.77a2.26 2.26 0 01-.26-.16 3.39 3.39 0 01-1.36-1.55c-.45-1.15.1-2.41 1.65-3.3l1.91-1.1 1.5-.87.88-.52.9-.52 4.93-2.85 1.26-.72 7.51-4.35-8.45 4.91 2.45-1.37 2.28-1.32 2.2-1.27 1.05-.6 2-1.17c.69-.39 1.35-.78 2-1.13.82-.49 1.59-.93 2.3-1.33l1.94-1.12 1-.61.85-.49.84-.49.27-.15 35.77-20.62h.05l.23-.12a4.68 4.68 0 013.93.06l2.06 1.19 1.27.74a2.47 2.47 0 00-2.59 0l-.41.23-.46.25-39.85 23L122.21 57a.79.79 0 000 1.51l8.79 5.03a4.8 4.8 0 004.08.13z" fill="#ff66a7"/><path d="M104.24 200l16.4-9.42-12.31-7.1-4.09 2.36z" fill="#363687"/><path d="M275.32 186.2L186 237.76l-3.83 2.22a8.91 8.91 0 01-4.35 1v4.79a8.3 8.3 0 004.09-1l1.59-.92.7-.4.86-.5.35-.2.27-.16.24-.13.08-.05 89.3-51.56a4.69 4.69 0 002.17-3.63v-3.83c.03 1.54-1.47 2.41-2.15 2.81z" fill="#5c5cc4"/><path d="M177.83 241a8.9 8.9 0 004.36-1.05l3.81-2.2L275.68 186c2.41-1.38 2.41-3.65 0-5.05L263.77 174l-52.21-30.47a9.64 9.64 0 00-8.72 0l-82.2 47.08-4.1 2.36-10.75 6.15a.27.27 0 000 .15.33.33 0 000 .1c0 .12.06.25.1.38a3 3 0 00.16.44 4.11 4.11 0 00.21.42 2.65 2.65 0 00.26.39 3 3 0 00.22.28l.17.18a3.61 3.61 0 00.3.25 2.83 2.83 0 00.28.2l62.13 35.88 3.81 2.2a8.74 8.74 0 004.4 1.01z" fill="#4949a5"/><path d="M108.34 199.26l67 38.68a5 5 0 005 0l93.07-53.75a2.52 2.52 0 001.26-2.18v-12.15L177.83 226l-69.51-40.13z" fill="#fff"/><path d="M180.35 237.94l93.08-53.75a2.51 2.51 0 001.26-2.17v-12.15L177.84 226v12.65a5.07 5.07 0 002.51-.71z" fill="#dae6ea"/><path d="M107.31 187.62v11.15a2.6 2.6 0 001 2.09c.57.32 1-.09 1-.93v-11.14a2.62 2.62 0 00-1-2.1c-.55-.31-1 .1-1 .93z" fill="#192370"/><path d="M184.21 224.63l1.63-.93.16-.09 53.12-30.68 36.2-20.9a4.67 4.67 0 002.18-3.61v-3.83c0 1.51-1.54 2.36-2.17 2.73L235 190.58l-49 28.31-3.82 2.19a8.83 8.83 0 01-4.37 1v4.81a8.24 8.24 0 004.1-1l1.59-.91z" fill="#5c5cc4"/><path d="M275.69 167.1l-11.92 6.9L186 218.88l-3.82 2.2a9.64 9.64 0 01-8.73 0l-3.8-2.19-49-28.31-12-6.95-2.55-1.47a5.74 5.74 0 00-1-.44 3 3 0 00-.48-.11 2.56 2.56 0 00-.47 0h-.31a1.27 1.27 0 00-.28.06.6.6 0 00-.19.06.45.45 0 00-.18.07.76.76 0 00-.22.11l99.13-57.31a9.61 9.61 0 018.72 0l64.88 37.42c2.39 1.43 2.39 3.68-.01 5.08z" fill="#8989e0"/><path d="M233.56 137.73l-22.75-13.1a9.61 9.61 0 00-8.72 0l-58.24 33.64 32.45 19z" fill="#c1cff4"/><path d="M105.78 188.72v10.14a.86.86 0 000 .22.31.31 0 000 .16.16.16 0 000 .1 3 3 0 00.09.38 2.32 2.32 0 00.16.44 4.11 4.11 0 00.21.42 2.65 2.65 0 00.26.39 3 3 0 00.22.28l.17.18a2.21 2.21 0 00.3.25l.28.2 62.13 35.88 3.83 2.21a8.91 8.91 0 004.35 1v4.79a8.3 8.3 0 01-4.09-1l-1.59-.92-.7-.4-.86-.5-.35-.2-.27-.16-.24-.13-.08-.05-63.6-36.73a9.63 9.63 0 01-4.36-7.55v-13.45a3.13 3.13 0 011.21-2.79l.14-.08h.08a.67.67 0 01.18-.07.6.6 0 01.19-.06 1.24 1.24 0 01.29-.06h.3a2.56 2.56 0 01.47 0 3 3 0 01.48.11 5.74 5.74 0 011 .44l2.55 1.47 12 6.95 49 28.31 3.81 2.19a8.8 8.8 0 004.35 1v4.81a8.2 8.2 0 01-4.09-1l-1.59-.91-.7-.41-1.62-.93-.16-.09-53.1-30.67-9-5.21c-.87-.51-1.65-.05-1.65 1.05z" fill="#706edc"/><path d="M198.27 240.12l16.41-9.43-12.31-7.1-4.1 2.35z" fill="#345184"/><path d="M369.35 226.32l-89.3 51.56-3.82 2.22a9 9 0 01-4.36 1v4.79a8.34 8.34 0 004.1-1l1.59-.92.69-.4.87-.49.34-.21.27-.16.24-.13h.08l89.3-51.58a4.67 4.67 0 002.18-3.63v-3.83c0 1.51-1.53 2.39-2.18 2.78z" fill="#6f89d1"/><path d="M271.86 281.14a9 9 0 004.36-1l3.82-2.21 89.68-51.77c2.4-1.39 2.4-3.66 0-5.06l-11.93-6.95-52.21-30.47a9.62 9.62 0 00-8.71 0l-82.2 47.02-4.09 2.35-10.75 6.15a.8.8 0 000 .15.16.16 0 000 .1 3.56 3.56 0 00.09.39 2.5 2.5 0 00.16.43 4.11 4.11 0 00.21.42 2.65 2.65 0 00.26.39 3 3 0 00.22.28l.18.18a3.23 3.23 0 00.29.25l.28.2 62.13 35.88 3.82 2.2a8.68 8.68 0 004.39 1.07z" fill="#4c68a5"/><path d="M202.37 239.38l67 38.68a5 5 0 005 0l93.09-53.74a2.51 2.51 0 001.25-2.17V210l-96.85 56.1-69.5-40.1z" fill="#fff"/><path d="M274.39 278.06l93.08-53.74a2.54 2.54 0 001.26-2.18V210l-96.86 56.09v12.65a5.17 5.17 0 002.52-.68z" fill="#dae6ea"/><path d="M201.33 227.74v11.15a2.58 2.58 0 001 2.09c.56.32 1-.09 1-.93v-11.14a2.65 2.65 0 00-1-2.1c-.54-.31-1 .1-1 .93z" fill="#192370"/><path d="M278.25 264.76l1.62-.94.16-.09 53.12-30.68 36.2-20.9a4.64 4.64 0 002.18-3.61v-3.83c0 1.51-1.54 2.36-2.17 2.74l-40.29 23.26-49 28.3-3.82 2.19a8.77 8.77 0 01-4.36 1.05v4.81a8.17 8.17 0 004.09-1l1.59-.91z" fill="#6f89d1"/><path d="M369.72 207.22l-11.92 6.89L280 259l-3.82 2.2a9.62 9.62 0 01-8.72 0l-3.77-2.2-49-28.3-12.05-7-2.55-1.47a5.44 5.44 0 00-1-.44 3 3 0 00-.48-.11 2.56 2.56 0 00-.47 0h-.3a1.27 1.27 0 00-.28.06.59.59 0 00-.2.06.45.45 0 00-.18.07.76.76 0 00-.22.11l99.94-57.28a9.61 9.61 0 018.72 0l64.13 37.42c2.37 1.45 2.37 3.7-.03 5.1z" fill="#aacaf9"/><path d="M363 203.21l-14.89-8.75a26.39 26.39 0 00-5.52-2.3l-64.14-16.84-67.74 38.84 66.76 38.65a5.82 5.82 0 005.24 0L363 206.25c1.45-.84 1.46-2.2 0-3.04z" fill-opacity=".15"/><path d="M199.81 228.84V239a.86.86 0 000 .22.31.31 0 000 .16.16.16 0 000 .1 3.56 3.56 0 00.09.39 2.5 2.5 0 00.16.43 4.11 4.11 0 00.21.42 2.7 2.7 0 00.27.39 3.15 3.15 0 00.22.29l.17.17a1.68 1.68 0 00.29.25l.28.2 62.13 35.88 3.83 2.21a9 9 0 004.36 1v4.79a8.34 8.34 0 01-4.1-1l-1.59-.92-.69-.4-.87-.49-.34-.21-.27-.16-.24-.13h-.09l-63.6-36.73a9.63 9.63 0 01-4.35-7.55v-13.52a3.15 3.15 0 011.2-2.79l.14-.08h.08a.73.73 0 01.19-.07.53.53 0 01.19-.06 1.27 1.27 0 01.28-.06h.3a2.56 2.56 0 01.47 0 3.38 3.38 0 01.49.11 5.66 5.66 0 011 .44l2.55 1.47 12.05 7 49 28.3 3.81 2.19a8.87 8.87 0 004.36 1v4.81a8.34 8.34 0 01-4.1-1l-1.59-.92-.69-.4-1.62-.94-.17-.09-53.1-30.67-9-5.21c-.92-.54-1.71-.08-1.71 1.02z" fill="#7fa8e6"/><path d="M213.49 158.25a8.35 8.35 0 00-5.49.75l-43.9 25.32c-1.43.83-1.43 2.18 0 3l38.35 22.07L263.77 174l3-1.75z" fill-opacity=".15"/><path d="M360.85 196.71V199l-80.58 48.9-1.48-.86-1.27-.73-110.65-63.89a9.94 9.94 0 011.38-1.87 7.36 7.36 0 011.7-1.38l75.91-43.82a5.28 5.28 0 01.53-.27 9.73 9.73 0 018.18.27l78.95 45.57 4.08 2.37z" fill="#7c2549"/><path d="M360.85 196.71V199l-80.58 48.87-1.48-.86-1.27-.72-110.65-63.86a9.94 9.94 0 011.38-1.87 7.53 7.53 0 011.7-1.37l76.44-44.1 1.31-.76a9.64 9.64 0 018.72 0l78.5 45.8 4.06 2.37 20.07 11.71a3.21 3.21 0 011.8 2.5z" fill="#7c2549"/><path d="M281.05 241.79L356 198.54a2.55 2.55 0 001.26-2.18v-25.8L281.05 215z" fill="#fff"/><path d="M283.09 213.52c1.12-.65 2-.05 2 1.34v23.29a4.7 4.7 0 01-2 3.7c-1.13.65-2 .05-2-1.34v-23.29a4.68 4.68 0 012-3.7z" fill="#192370"/><path d="M360.85 163.67V166l-80.58 48.86-1.48-.85-1.28-.74-110.64-63.89a8.71 8.71 0 013.08-3.25l77.75-44.86a9.64 9.64 0 018.72 0l102.63 59.87a3.22 3.22 0 011.8 2.53z" fill="#ff66a7"/><path d="M326.55 142.19l-70.14-40.92a9.64 9.64 0 00-8.72 0l-71.38 41.18 72.24 41.85a5.72 5.72 0 005.22 0z" fill-opacity=".15"/><path d="M169.94 186a9.63 9.63 0 01-4.36-7.55v-24.78a9.45 9.45 0 011.28-4.29l3.08 1.78 110.32 63.69-1.45 34z" fill="#e7478d"/><path d="M283.54 214.51a1.64 1.64 0 01.22-.14l1.51-.87 1.79-1 4.93-2.85 1.26-.73 7.57-4.38 2.48-1.42 2.38-1.37 4.48-2.59 1.05-.62 2-1.15 9.25-5.35 15.12-8.72 1.38-.8 19.7-11.37a4.67 4.67 0 002.13-3.58v-3.84c0 1.15-.6 1.81-1.73 2.47l-.44.26-23.76 13.72-1.4.8-15.13 8.74-36.57 21.11a9.76 9.76 0 00-4.3 7.21V246.31a3.42 3.42 0 00.67 2c.76 1 2.13 1.11 3.68.22l1.9-1.1 1.51-.86.89-.52.9-.51 4.93-2.85 1.26-.72 7.57-4.38 2.48-1.43 2.38-1.37 2.28-1.32 2.2-1.27 1.05-.61 2-1.16 2-1.15 2.3-1.32 1.94-1.12 1.05-.61.85-.49.84-.48.26-.15 36.2-20.9.22-.14a4.65 4.65 0 001.91-3.44v-3.84a2.49 2.49 0 01-1.33 2.23l-.4.24-.44.26-40.29 23.26-35.48 20.47c-.73.43-1.31.08-1.31-.75v-24.3a4.88 4.88 0 012.06-3.69z" fill="#bf2878"/><path d="M330.64 130.88l-16.4-9.42 12.31-7.1 4.09 2.35z" fill="#345184"/><path d="M144.84 115.4L243 172.05l3.82 2.22a9 9 0 004.36 1v4.79a8.34 8.34 0 01-4.1-1l-1.59-.92-.69-.4-.87-.49-.34-.2-.27-.17-.24-.13H243l-98.13-56.64a4.67 4.67 0 01-2.18-3.63v-3.83c-.02 1.47 1.48 2.35 2.15 2.75z" fill="#7fa8e6"/><path d="M255.51 174.25l3.81-2.21 68-39.27.29-.2.29-.26.17-.17a3 3 0 00.22-.28 2.65 2.65 0 00.26-.39 4.11 4.11 0 00.21-.42 3.7 3.7 0 00.25-.82.16.16 0 000-.1.8.8 0 000-.15l-10.74-6.15-4.1-2.36-91-52.17a9.64 9.64 0 00-8.72 0l-58.09 33.86-11.93 6.95c-2.4 1.4-2.4 3.66 0 5.05L243 172.05l3.81 2.21a9 9 0 004.36 1 8.79 8.79 0 004.34-1.01z" fill="#4c68a5"/><path d="M326.54 130.15l-72.88 42.07a5 5 0 01-5 0l-101.94-58.83a2.54 2.54 0 01-1.26-2.18V99.06l105.69 61.19 75.4-43.53z" fill="#dae6ea"/><path d="M248.63 172.22l-101.91-58.83a2.54 2.54 0 01-1.26-2.18V99.06l105.69 61.19v12.65a5.07 5.07 0 01-2.52-.68z" fill="#fff"/><path d="M327.58 118.52v11.14a2.61 2.61 0 01-1 2.09c-.56.32-1-.09-1-.92v-11.15a2.65 2.65 0 011-2.1c.54-.33 1 .1 1 .94z" fill="#ffdb4c"/><path d="M244.77 158.92l-1.62-.94-.16-.09-53.13-30.68-45-26a4.64 4.64 0 01-2.18-3.61v-3.82c0 1.51 1.54 2.36 2.17 2.73L194 124.86l49 28.3 3.81 2.19a8.83 8.83 0 004.37 1.05v4.81a8.34 8.34 0 01-4.1-1l-1.59-.92z" fill="#7fa8e6"/><path d="M144.47 96.3l11.92 6.89 86.59 50 3.81 2.21a9.72 9.72 0 008.73 0l3.8-2.2 54.9-31.69 12-7 2.54-1.47a6.08 6.08 0 011-.44 3 3 0 01.48-.11 2.67 2.67 0 01.48 0h.3a1.27 1.27 0 01.28.06.6.6 0 01.19.06.45.45 0 01.18.07.76.76 0 01.22.11L223.21 50.4a9.61 9.61 0 00-8.72 0l-70 40.81c-2.42 1.44-2.42 3.69-.02 5.09z" fill="#aacaf9"/><path d="M329.11 119.61v10.14a.58.58 0 010 .22.31.31 0 010 .16.16.16 0 010 .1 3.56 3.56 0 01-.09.39 2.5 2.5 0 01-.16.43 4.11 4.11 0 01-.21.42 2.65 2.65 0 01-.26.39l-.22.29-.17.17a1.42 1.42 0 01-.3.25l-.28.2-68 39.27-3.82 2.21a9 9 0 01-4.36 1v4.8a8.45 8.45 0 004.1-1l1.59-.92.69-.4.87-.49.34-.2.17-.04a1.75 1.75 0 01.24-.14l.08-.05 69.49-40.12a9.61 9.61 0 004.36-7.54v-13.59a3.13 3.13 0 00-1.21-2.79l-.14-.08h-.08a.67.67 0 00-.18-.07.6.6 0 00-.19-.06 1.27 1.27 0 00-.28-.06h-.3a2.59 2.59 0 00-.48 0 3 3 0 00-.48.11 5.74 5.74 0 00-1 .44l-2.54 1.47-12.05 7-54.9 31.69-3.8 2.19a9 9 0 01-4.36 1v4.81a8.34 8.34 0 004.1-1l1.59-.92.69-.4c.77-.43 1.34-.77 1.62-.94l.16-.09 59-34.06 9-5.21c.98-.54 1.77-.08 1.77 1.02z" fill="#6f89d1"/><path d="M202.46 209.39v9.43l12.23-7-8.23-4.76zM310.76 194.07L288 207.23c-8-1.22-13.88-5.4-13.88-10.4 0-5.94 8.35-10.77 18.65-10.77 8.61 0 15.88 3.4 17.99 8.01z" fill-opacity=".15"/><path d="M296.21 183.06a30.28 30.28 0 004.32 5.88 26 26 0 011.46 2.19 8.49 8.49 0 003 2.75c1 .49 1.49.5 1.68.34s.13-.49-.31-.77a7.08 7.08 0 01-2-1.53s.95.65 1.56 1a6.71 6.71 0 001.71.7c.58.14 1.24-.45.79-.75s-.86-.39-1.76-.91a6.92 6.92 0 01-1.31-1 12.81 12.81 0 001.91.79 2.87 2.87 0 001.63.13c.28-.06.55-.53 0-.82a10.33 10.33 0 01-2.29-1c-.69-.48-1.11-.91-.95-.95s.55.26 1.27.36 1.43-.24 1.45-.63-.14-.21-.84-.42a19.27 19.27 0 00-2.25-.84 7.54 7.54 0 01-2.21-.71c-.76-.39-2.32-2.82-3.49-5a74.86 74.86 0 01-2.52-8c-.74-2.67-1.76-8.13-2.29-10a3 3 0 00-2.53-2.53c-1.29-.3-2 1.32-1.73 2.89.39 2.77 2.54 13.45 5.7 18.83z" fill="#683e42"/><path d="M292.11 161.1c1.32-.21 2.41 1 3 2.93s1.28 6 1.77 7.46a13.93 13.93 0 01.61 2.59 6.22 6.22 0 01-4.75 1.24 61.18 61.18 0 01-2.08-7.93c-.66-3.61-.92-5.92 1.45-6.29z" fill="#aacaf9"/><path d="M295.18 174.67a5 5 0 002.16-1.28l-.1-.48s.25 0 .63 1.11.43 1.85.25 2.09c-1.08 1.43-4.16 2-4.71 1.15-.39-.58-1.32-2.18-1-2.88l.18.52a5.43 5.43 0 002.59-.23z" fill="#c4d9ff"/><path d="M303.57 218.83a11.6 11.6 0 01-.25 1.34 5.76 5.76 0 00-.19 2.1c.11.49 1.51 1.18 2.29 1.28a4.84 4.84 0 012.41 1.49 4.4 4.4 0 003.39 1.27c1.09-.12 2.31-.38 2.57-.81s-.1-.93-2.37-2.55-3.8-2.6-4.5-4.1zM295.34 234.19a3.59 3.59 0 002.54 1.35 10.31 10.31 0 001.57.06c.55 0 1.41-.33 1.36-1a1.18 1.18 0 00-.29-.58c-.89-1.15-1.85-2.25-2.66-3.46a11.08 11.08 0 01-2.16-4.69h-3.4c0 .28-.09.68-.14 1.07a10.62 10.62 0 01-.24 1.12 3.09 3.09 0 00.1 2.22 4.64 4.64 0 001.31 1.18 12.61 12.61 0 012.01 2.73z" fill="#2d2979"/><path d="M279.27 189.14c-1.24 7.71 2.72 10 6.49 12.85 3.05 2.35 5.06 4 5.06 4s-.06 1.69-.1 5.49c0 3.34.1 14.35.1 14.35s3.71 1 5.27 0c0 0 .24-8.19.62-12.41.51-5.72 1.09-8.66.79-9.89-.26-1.08-4.13-6.44-5.32-8.26l10.9 6.33a37.83 37.83 0 00-.32 4.84c.12 4.54-.5 12.39-.5 12.39s3.75 1.28 5.29 0c0 0 2.77-18.47 2.77-20.09 0-2.47-10.74-9.85-12.78-11.57-1.15-1-2.45-2-2.45-2z" fill="#7fa8e6"/><path d="M292.19 195.29a7.83 7.83 0 002.49-3.55 17 17 0 01-.39 2.69c-.3 1.18 8.79 7.18 8.79 7.18z" fill="#6795d6"/><path d="M283.77 159.68s.19 3.67.11 4-1.68 1.4-2.16 1.79 2.54 3.35 4 4 6.09-1.1 6.17-3.38-.8-4.18-1.5-4.28-6.62-2.13-6.62-2.13z" fill="#683e42"/><path d="M289.8 163.88c.49-.43-.07-1.4-.41-2.07-1.52-.46-5.62-2.14-5.62-2.14s0 .85.07 1.44a2.46 2.46 0 001 1.82 7 7 0 001.64.95c.58.23 2.21 1.01 3.32 0z" fill="#492c31"/><path d="M283.35 164.22s1.58 2.6 6.63 3.07c1-1.87 1-4-.6-5.31 0 0 1.49-1.2 2.51-1a5.27 5.27 0 012.29 2.93 23.91 23.91 0 011.31 8.49c-.06 3.9.12 13.57.12 13.57s.63 2.85-4.08 5a12.85 12.85 0 01-8.16 1.22c-1.88-.44-3.89-1.16-4.3-2 .38-3.11 1.34-8.57 1.08-11.83-.28-3.45-1-6-1.2-8.74s.37-2.72 1.76-3.72a23 23 0 012.64-1.68z" fill="#f5fbfb"/><path d="M289.39 162a16.74 16.74 0 013.16 5.5c1.05 3.22 1.35 8.1 1.45 11.41s.45 11.11.45 11.11a4.81 4.81 0 001.63-4s-.26-5.16-.41-9.71.13-8.38-1-11.61-3-3.8-3-3.8z" fill="#c4d9ff"/><path d="M293.73 174.16s.86-4.51.63-5.91a2.74 2.74 0 00-1.44-2s-.9-3.59-1.26-4.45-3-1-3-1a18.36 18.36 0 012.25 3.8 28 28 0 012.82 9.56z" fill="#aacaf9"/><path d="M283.88 163.68c0 1.17 3 2.08 3.42 8.53s-.83 21.91-.83 21.91-5.16-.56-5.38-4.1c0 0-.51 2.46-2.74 2.36 0 0 .28-2 1-5.58a43.38 43.38 0 00.06-12.26c-.45-3.65-1.51-6.83-.06-8.06a32.1 32.1 0 014.53-2.8z" fill="#c4d9ff"/><path d="M283.88 162.53a1.51 1.51 0 00-.63.64 9.17 9.17 0 01-1.15 1.47 7 7 0 001.78 2.58 14.34 14.34 0 012.23 2.76s-.85 2.82-1 3.43 2.22 3.31 2.22 3.31.55-5-.5-8-2.89-4.77-3-5.27z" fill="#aacaf9"/><path d="M292.08 154.21c-.44-2.85-2.49-5-5.44-4.86a5.66 5.66 0 00-2.88 10.32 6.24 6.24 0 00.46 1.25c1 1.22 4.18 2 5.08 1.84a2.68 2.68 0 002.34-1.91 12.79 12.79 0 00.44-6.64z" fill="#683e42"/><path d="M291.65 151.91a5.62 5.62 0 00-5.87-2.44 5.71 5.71 0 00-4.46 5 5.61 5.61 0 002.46 5.19c-.06-.19-1.54-2.41 0-2.9a1.87 1.87 0 01.31 1.16s.75-.07.58-1l-.13-.67a2.62 2.62 0 01.43-2 2.32 2.32 0 00.41-1.86 7.57 7.57 0 004.3.34 4.06 4.06 0 001.97-.82z" fill="#231f1a"/><path d="M283.77 159.66s-.13.3-.69.33c-1 0-2.23-1.86-1.41-3.17a1.36 1.36 0 012.08 0z" fill="#683e42"/><path d="M299.29 175.14s-4.15.39-4.51.53-3.14 5.33-3.36 5.82 3.06.39 3.89.25c.58-.09 4.17-6.17 3.98-6.6z" fill="#7fa8e6"/><path d="M274.43 187a17.86 17.86 0 008.15.86 26.82 26.82 0 008.35-2c.38-.18.81-.24 1.2-.39a7.83 7.83 0 001.17-.56 9.19 9.19 0 002-1.59 10.45 10.45 0 002.4-4 2.76 2.76 0 00.24-1.4c-.72 1.17-2 1.67-3.4 2.17a3.73 3.73 0 01-1.76.2c0-.2.2-.41.3-.55a3.47 3.47 0 00.46-.79c.3-.72.25-1.11.07-1.28s-.51.1-1 .59a7.61 7.61 0 00-1.6 2 7 7 0 01-1.38 1.87c-.6.67-2.4 1.49-5.3 1.7a22.76 22.76 0 01-5.91-.58 55.69 55.69 0 012-9.69c.93-3.76 1.28-5.43.27-6.23-1.5-1.19-3.34.34-4 2.81a68.39 68.39 0 00-2.48 9.94c-.62 3.78-.93 6.33.22 6.92z" fill="#683e42"/><path d="M280.26 166.51c1.26.42 1.66 2 1.28 4s-1.64 5.94-1.87 7.43a13.76 13.76 0 01-.65 2.59 6.28 6.28 0 01-4.79-1.09 62.94 62.94 0 011.8-8c1.13-3.53 1.97-5.69 4.23-4.93z" fill="#aacaf9"/><path d="M276.73 180a4.87 4.87 0 002.5-.14l.14-.47s.22.12 0 1.28-.48 1.83-.75 2c-1.62.77-4.6-.16-4.72-1.15-.08-.69-.17-2.54.44-3l-.08.54a5.48 5.48 0 002.47.94z" fill="#c4d9ff"/><path d="M147.6 181.9c-11.41 0-20.93 4.66-23.19 10.85l28.06 16.19c10.74-1.29 18.83-6.79 18.83-13.38 0-7.56-10.61-13.66-23.7-13.66z" fill-opacity=".15"/><path d="M129.61 171.31a19.06 19.06 0 012.37.42 4.08 4.08 0 002.51.09 16.37 16.37 0 009-6.53c1.87-2.75 3.94-7 4.92-8.72a3 3 0 013.08-1.81c1.33 0 2.2 1.24 1.07 3.78a47 47 0 01-5.65 9.38 26.56 26.56 0 01-11.08 7.45 28 28 0 00-2.66 1.18 8.37 8.37 0 01-3.95.92c-1.15-.09-1.55-.3-1.63-.53s.13-.5.65-.52a7.09 7.09 0 002.48-.36s-1.16.1-1.85.1a6.66 6.66 0 01-1.83-.24c-.58-.17-.86-1-.33-1s1 .08 2 .07a6.72 6.72 0 001.63-.21 13.09 13.09 0 01-2.05-.25 3 3 0 01-1.48-.68c-.21-.19-.22-.73.45-.69a10.41 10.41 0 002.48.25c.84-.07 1.42-.24 1.3-.35s-.61 0-1.29-.32-1.12-.92-.94-1.27.1-.33.8-.16z" fill="#b44c65"/><path d="M152.27 154.73c-.83-.53-2.34-.46-3.74 1.23s-3.28 5.69-4 7c0 0 2 3.16 4.75 2.48a65.15 65.15 0 003.48-6.79c.61-1.83.92-2.99-.49-3.92z" fill="#f5fbfb"/><path d="M167.61 197.38c.93-1.86.12-4.41-1.1-7.55-1.34-3.44-2.82-7-2.82-7l-16-5.35s-14.79-.28-16.25 2.71c-1.15 2.38 9.11 6 10.58 6.11l9 .49.95.45 6.33 8z" fill="#c4d9ff"/><path d="M152.9 204.83a3.64 3.64 0 01-1.19 2.61 9 9 0 01-1.21 1c-.44.33-1.32.59-1.7 0a1.15 1.15 0 01-.12-.64c0-1.44.09-2.9 0-4.36a11.05 11.05 0 00-1.14-5l2.73-2c.18.22.49.49.76.76s.58.5.88.74a3.07 3.07 0 011.27 1.81 4.81 4.81 0 01-.31 1.74 11.74 11.74 0 00.03 3.34z" fill="#2d2979"/><path d="M140.38 182.61a38 38 0 013.17 3.68 272.02 272.02 0 016.82 10.35 2.84 2.84 0 01-2.65 2s-13.71-12.8-14.83-14c-1.7-1.79-3.06-4.75-.13-5a11.32 11.32 0 017.62 2.97z" fill="#c4d9ff"/><path d="M143.62 186.38s-2.44-3.58-5-5.07c0 0 2.52.51 6.34 5.15zM150 197.38l-6.2-2.38 3.92 3.68a2.42 2.42 0 001.49-.43c.79-.52.79-.87.79-.87z" fill="#aacaf9"/><path d="M159.49 153.31s-.19 3.68-.11 4 1.68 1.4 2.16 1.79-2.54 3.35-4 4-6.09-1.1-6.17-3.38.8-4.18 1.5-4.28 6.62-2.13 6.62-2.13z" fill="#b44c65"/><path d="M153.46 157.51c-.48-.43.07-1.4.42-2.07 1.52-.46 5.62-2.14 5.62-2.14s0 .85-.07 1.44a2.42 2.42 0 01-1 1.81 6.77 6.77 0 01-1.65 1c-.57.19-2.2.97-3.32-.04z" fill="#912b40"/><path d="M159.92 157.85s-2.82 2.93-5.64 1.77c-1.5-.61-1.81-2.56-.4-4 0 0-1.49-1.2-2.51-1a5.27 5.27 0 00-2.29 2.93 23.93 23.93 0 00-1.31 8.5c.06 3.89-.12 13.56-.12 13.56s-.63 2.85 4.08 5a12.9 12.9 0 008.16 1.21 6.31 6.31 0 003.8-3 57.87 57.87 0 01-.21-10.47c.28-3.46.65-6.34.83-9.11s-.36-2.72-1.76-3.71a22.12 22.12 0 00-2.63-1.68z" fill="#f5fbfb"/><path d="M159.61 157.58l.72.51a6.78 6.78 0 01-2.58 1.82c-1.56.57-3.07.68-4.32-.31s-1-3 0-4.3l.75.48a5.08 5.08 0 00-.7 2 2.1 2.1 0 002.26 1.61 6.32 6.32 0 003.87-1.81z" fill="#c4d9ff"/><path d="M151.19 147.84c.44-2.85 2.49-5 5.43-4.85a5.65 5.65 0 012.87 10.32 6.08 6.08 0 01-.45 1.25c-1 1.22-4.19 2-5.08 1.84a2.68 2.68 0 01-2.34-1.91 12.93 12.93 0 01-.43-6.65z" fill="#b44c65"/><path d="M151.62 145.54a5.58 5.58 0 015.86-2.43 5.74 5.74 0 014.6 4.94 5.81 5.81 0 01-2.58 5.25c.06-.19 1.54-2.4 0-2.9a1.89 1.89 0 00-.33 1.16s-.75-.07-.58-1l.13-.67a2.63 2.63 0 00-.43-2 2.34 2.34 0 01-.4-1.85 7.64 7.64 0 01-4.3.33 3.9 3.9 0 01-1.97-.83z" fill="#6d293d"/><path d="M162.45 188.4a17.73 17.73 0 011.73-1.67 4.25 4.25 0 001.55-2 16.44 16.44 0 000-11.09c-1.13-3.13-3.42-7.32-4.18-9.09a3 3 0 01.34-3.56c.81-1 2.28-1 3.68 1.35a46.71 46.71 0 014.29 10.07 26.63 26.63 0 01-.46 13.33 28.38 28.38 0 00-.59 2.85 8.48 8.48 0 01-1.58 3.74c-.74.88-1.14 1.08-1.38 1s-.33-.39 0-.83a7 7 0 001.15-2.22s-.59 1-1 1.56a7 7 0 01-1.27 1.35c-.47.36-1.32.1-1-.34s.63-.73 1.22-1.57a7.4 7.4 0 00.78-1.44 12.2 12.2 0 01-1.41 1.51 2.85 2.85 0 01-1.43.79c-.29.07-.73-.24-.29-.75a10.87 10.87 0 001.66-1.87c.43-.73.63-1.29.47-1.26s-.39.47-1 .86-1.4.37-1.58 0-.26-.25.3-.72zM159.5 153.29s.13.3.68.33c1 0 2.23-1.86 1.41-3.17a1.35 1.35 0 00-2.07 0z" fill="#b44c65"/><path d="M134.37 191.69a3.59 3.59 0 00-2 2.05 8.84 8.84 0 00-.51 1.5c-.15.53-.08 1.43.6 1.58a1 1 0 00.64-.11c1.36-.52 2.68-1.13 4.07-1.56a10.91 10.91 0 015.11-.75l.93-3.28c-.27-.09-.64-.28-1-.43s-.67-.37-1-.55a3 3 0 00-2.14-.53 4.8 4.8 0 00-1.51.91 13.11 13.11 0 01-3.19 1.17z" fill="#2d2979"/><path d="M165.25 194.59a20.68 20.68 0 00-8.51-1.91c-5.79-.3-13.57-1.58-13.57-1.58a3.82 3.82 0 00-.9 3.3s10.4 4.22 13.67 4.92c5.24 1.13 6.86.87 9.39-.14s3.93-3.36-.08-4.59z" fill="#c4d9ff"/><path d="M162.29 160.33c-.91.35-1.74 1.62-1.19 3.74a41.75 41.75 0 003 7.43s3.66.28 4.83-2.61a53.07 53.07 0 00-3.18-6.65c-1.12-1.59-1.88-2.53-3.46-1.91z" fill="#f5fbfb"/><path d="M161.14 145.48s.35-1.11-1.1-2.21c-1.72-1.3-4.14-1-6.69 0-1.62.64-4.15-.15-3.66 1.72.72 2.74 6 3 8.3 1.07a5.85 5.85 0 013.15-.58z" fill="#180d2b"/><path d="M234.21 226.44c-7.28 0-13.53 2.53-16.23 6.16l23.23 13.4c6.29-1.56 10.69-5.17 10.69-9.37 0-5.63-7.9-10.19-17.69-10.19z" fill-opacity=".15"/><path d="M242.12 191.06s.67-1.31 3.15-.91 2.92 2.44 2.82 7 .06 6.69.31 7.65-1.91 3.36-4.22 2.35-2.06-16.09-2.06-16.09z" fill="#c9483a"/><path d="M232.9 224.35a23.49 23.49 0 01-4.42 4.6c-.48.42-.72.85-1.51 1.74a6.74 6.74 0 01-3 2c-1 .26-1.43.19-1.59 0s-.09-.48.35-.65a5.55 5.55 0 001.94-1s-.93.43-1.52.63a5.76 5.76 0 01-1.64.32c-.55 0-1.13-.64-.69-.82s.83-.2 1.7-.53a5.68 5.68 0 001.28-.66 10.85 10.85 0 01-1.84.37 2.87 2.87 0 01-1.52-.17c-.27-.11-.49-.58.1-.73a9.48 9.48 0 002.2-.52c.68-.31 1.1-.62 1-.69s-.54.14-1.22.09-1.32-.48-1.31-.85.14-.16.82-.22a14.29 14.29 0 012.14-.36 6.47 6.47 0 002.11-.25c.73-.22 2.35-2.17 3.6-4a26.11 26.11 0 003.18-6.44c.74-2.46 1.64-7 2.26-8.65a3.24 3.24 0 012.77-2.35c1.67-.17 1.75 1.57 1.42 3-.58 2.4-3.3 11.79-6.61 16.14z" fill="#ffa8a7"/><path d="M229.5 255.93a12.9 12.9 0 00.26 1.33 5.76 5.76 0 01.19 2.1c-.11.49-1.51 1.19-2.29 1.29a4.77 4.77 0 00-2.41 1.49 4.4 4.4 0 01-3.4 1.26c-1.08-.13-2.3-.38-2.56-.81s.1-.93 2.37-2.55 3.8-2.59 4.5-4.09zM231.91 269.86a3.61 3.61 0 01-2.53 1.35 10.36 10.36 0 01-1.57.06c-.56 0-1.41-.34-1.36-1a1.18 1.18 0 01.29-.58c.88-1.15 1.84-2.26 2.66-3.47a11 11 0 002.15-4.69h3.4c0 .29.09.69.14 1.07a8.77 8.77 0 00.25 1.13 3 3 0 01-.11 2.21 4.49 4.49 0 01-1.3 1.19 13.17 13.17 0 00-2.02 2.73z" fill="#1b2259"/><path d="M247.93 228.41c1.5 4.07 1.27 7.43-4.07 10.4-2.84 1.58-8.56 4-8.56 4a19.83 19.83 0 01.85 6.05c0 3.34-1.19 12.71-1.19 12.71a3.69 3.69 0 01-3.4 0s-.7-6.53-1.22-11.09c-.65-5.7-1.2-9.06-.91-10.29s5.9-5 7.6-6.74l-.28-.1-10 4.91a13.16 13.16 0 011.61 5c.59 4.5 1.15 12.69 1.15 12.69a2.83 2.83 0 01-3.33 0s-6.65-18.71-5.74-20.92c1.18-2.93 14.13-9.18 14.76-10.48z" fill="#7b669b"/><path d="M237 233.39a12.58 12.58 0 01-2.76-4.49 18 18 0 00.48 3.51c.38 1.27-7.21 5.41-7.21 5.41l9.21-4.52z" fill="#d83068"/><path d="M244.68 201.34s-.25 4.44-.16 4.76 1.74.64 2.22 1-2.4 4.89-3.86 5.57-6-1-6.32-3.27c-.29-2.08 1.29-3.7 1.89-4.26a9.73 9.73 0 011.25 0l.13-2.16c1.97-.64 4.85-1.64 4.85-1.64z" fill="#ffa8a7"/><path d="M245.31 206.54c1.24.19 2.67.84 2.87 1.53a14.74 14.74 0 01-.34 7.4 49.35 49.35 0 01-2.78 6 12.4 12.4 0 01-9.24-1.21 28.37 28.37 0 01-.46-3.95c-3.87-3.36-.84-7.51 2.42-10.81a1.33 1.33 0 011-.4h.63a8.37 8.37 0 00-1.86 2.51 2.29 2.29 0 00.94 3.12c1.58.7 2.73.27 4.07-1.16.87-.95 1.3-2.22 2.75-3.03z" fill="#f5fbfb"/><path d="M239.72 204.73l.1-1.75 1.41-.46 3.45-1.17s0 .81-.06 1.39c0 0-.14 1.52-2.64 2.7-.45.21-2.12.36-2.26-.71z" fill="#f28f8f"/><path d="M236.29 195.92c.44-2.85 2.58-5 5.51-4.89a5.67 5.67 0 015.35 6 5.6 5.6 0 01-2.48 4.34 3.37 3.37 0 01-.72 1.47 5.42 5.42 0 01-4.23 1.78 3.56 3.56 0 01-2.78-2.1 12.06 12.06 0 01-.65-6.6z" fill="#ffa8a7"/><path d="M236.8 193.57a5.61 5.61 0 015.87-2.43 5.57 5.57 0 012 10.2c.06-.19 1.55-2.4 0-2.89a1.84 1.84 0 00-.33 1.15s-.75-.07-.58-.95l.13-.68a2.63 2.63 0 00-.43-2 2.29 2.29 0 01-.4-1.85 7.64 7.64 0 01-4.3.33 3.82 3.82 0 01-1.96-.88z" fill="#e5553e"/><path d="M243.38 236.4a16.13 16.13 0 011.81-1.43 6.78 6.78 0 001.82-1.31c.57-.57 1.43-3 1.87-5.34a23.42 23.42 0 00-.13-7.93 53.39 53.39 0 00-3.14-9.12c-.83-1.76-.36-2.84.4-3.62s1.84-.89 2.89 1.57a50.36 50.36 0 013.3 10.78 23.33 23.33 0 01-.11 8.09 29.56 29.56 0 01-2.15 6.78c-.27.63-.32 1.18-.7 2.44a8.31 8.31 0 01-2 3.41c-.81.75-1.23.89-1.45.8s-.26-.41.07-.8a6.79 6.79 0 001.37-2s-.68.89-1.13 1.38a6.48 6.48 0 01-1.37 1.14c-.5.3-1.28 0-1-.45s.68-.63 1.35-1.36a6.93 6.93 0 00.91-1.29 12.27 12.27 0 01-1.52 1.29 2.79 2.79 0 01-1.46.6c-.28 0-.66-.32-.19-.75a9.75 9.75 0 001.82-1.6c.49-.65.76-1.16.59-1.16s-.43.4-1.07.7-1.39.21-1.52-.16.15-.28.74-.66zM244.68 201.35s.14.28.68.31c1 .05 2.24-1.87 1.41-3.17a1.34 1.34 0 00-2.07 0z" fill="#ffa8a7"/><path d="M245.37 220.92c-.3.57-.15 1.36.49 2.68a33.94 33.94 0 012.46 5.81c-.08.36-.95 1.19-4.47 1.59-4.31.5-9.67-2.25-9.2-5.66.29-1.82 1-3.25 1.18-5.05s9.54.63 9.54.63zM242.46 191.11a6.06 6.06 0 012.63 1.16s.15-1-1.25-1.34a1.46 1.46 0 00-1.38.18z" fill="#f5fbfb"/><path d="M243.08 194.18a8.47 8.47 0 00-.39 3.57 11.45 11.45 0 01-2.89 0 8.52 8.52 0 010-3.08 9.38 9.38 0 00-.64 2.93 4.12 4.12 0 01-2.25-.41 6.32 6.32 0 01.28-2.35 4.52 4.52 0 00-.71 2.25 2 2 0 01-1.13-.58c-.44-.49.42-5.56 4.64-5.27z" fill="#e5553e"/><path d="M219.72 230.68l8.26-4.77a.49.49 0 01.47 0l14.49 8.37-8.5 4.9z" fill="#eff6fe"/><path d="M234.51 238.48l4.46-2.56-13-7.52-4.5 2.6z" fill="#aad1fc"/><path d="M236.71 231.34h-.08l-2.19 1.25-3.88-2.24h-.08l2.26-1.31z" fill="#aeb5b7"/><path d="M236.62 231.39l-2.18 1.26-3.89-2.25 2.19-1.26z" fill="#aad1fc"/><path d="M242.94 234.28v.19a.81.81 0 01-.4.69l-7.69 4.45a.87.87 0 01-.41.11.68.68 0 01-.39-.11l-13.93-8a.78.78 0 01-.4-.69v-.2l14.72 8.51z" fill="#c8e2ff"/><path d="M234.44 239.19v.53a.68.68 0 01-.39-.11l-13.93-8a.78.78 0 01-.4-.69v-.2z" fill="#aad1fc"/><path d="M234.21 239.3a1 1 0 01-.81-.06l-13.87-8a1 1 0 01-.47-.67l-1.52-9a.76.76 0 010-.15.92.92 0 01.29-.67l14.4 8.25a.7.7 0 01.34.49z" fill="#eff6fe"/><path d="M234.44 239.19l-.09.05-.13.06-1.64-9.79a.67.67 0 00-.34-.49l-14.42-8.32.19-.15 14.45 8.33a.7.7 0 01.34.48z" fill="#c8e2ff"/><path d="M226.4 231a3.07 3.07 0 00-1.4-1.81c-.67-.38-1.13-.21-1 .4a3.07 3.07 0 001.39 1.8c.66.34 1.12.16 1.01-.39z" fill="#aad1fc"/><path d="M321 176.58c10.3 0 18.66-4.82 18.66-10.77S331.25 155 321 155s-18.66 4.83-18.66 10.77 8.3 10.81 18.66 10.81z" fill-opacity=".15"/><path d="M322.19 125.21a19.69 19.69 0 012.14-1.1 4.26 4.26 0 001.84-1c.68-.61 1.87-3 2.74-5.3a24.18 24.18 0 001.3-8.14c-.16-3.32-1.13-8-1.34-9.93a3 3 0 011.36-3.3c1.08-.77 2.5-.34 3.13 2.37a51.48 51.48 0 011.16 11.37 25.86 25.86 0 01-1.7 8.29 30.43 30.43 0 01-3.5 6.4 23.69 23.69 0 00-1.16 2.36 8.45 8.45 0 01-2.6 3.12c-1 .63-1.41.7-1.62.56s-.2-.48.21-.81a6.64 6.64 0 001.75-1.78s-.85.77-1.41 1.2a6.57 6.57 0 01-1.61.91c-.55.21-1.28-.28-.88-.63s.8-.51 1.62-1.15a7 7 0 001.17-1.15 12.64 12.64 0 01-1.79 1 3 3 0 01-1.59.35c-.28 0-.61-.44-.06-.8a10.67 10.67 0 002.14-1.31c.62-.56 1-1.05.81-1.07s-.51.35-1.22.53-1.44-.06-1.51-.44-.05-.26.62-.55z" fill="#ffd4a9"/><path d="M329.57 95.71a2.49 2.49 0 013.17 1c.84 1.38 1.71 6.15 1.79 7a3.35 3.35 0 01-2.94 1.36z" fill="#f5fbfb"/><path d="M330.37 159.84a11.11 11.11 0 00.25 1.4c.15.61.18 1.4-.51 1.61a1.66 1.66 0 01-1.9-.44 12.5 12.5 0 00-1.62-2.37 5.62 5.62 0 01-2-2.55c-.24-1-.09-1.6.58-1.7a5.09 5.09 0 012.89 1.09 25.48 25.48 0 012.31 2.96zM320.63 165.58l.1 1.41a5.94 5.94 0 01.07 2.08c-.2.47-1.23.81-2.44.8a5.78 5.78 0 00-2.83 1.07 4.48 4.48 0 01-3.58.6c-1-.32-2.18-.8-2.36-1.29s.36-.71 2.9-1.87 4.4-2 5.38-3.3z" fill="#2d2979"/><path d="M331 146.38a30.13 30.13 0 00-1.12-5.29s.33-4.56.5-8.88c.17-4.67.46-10.52.55-11.69l-15.14 3.37s.42 17.83.58 20.19.75 4.27.94 8.86c.16 3.85-.5 12.14-.5 12.14 1.6.92 5.4.59 5.4.59s.88-11.14.76-13.88a21.45 21.45 0 00-.76-5.28s.7-5.1.94-9 .48-5.73.53-7.42l.3-.16s.31 6.68.47 9 .52 4.65 1.16 9.05c.55 3.82 1.34 11.78 1.34 11.78 1.6.93 4.4 0 4.4 0s.07-10.07-.35-13.38z" fill="#7fa8e6"/><path d="M323.67 130.12a29 29 0 005.11-3.42 11.47 11.47 0 01-3.66 3.45s-.73 8.3-.73 8.13l-.42-8.17z" fill="#6795d6"/><path d="M318.56 87.44c.57-2.83 2.73-4.89 5.65-4.58a5.67 5.67 0 015.06 6.23 5.61 5.61 0 01-2.68 4.21 5.83 5.83 0 01-.51 1.22c-1.1 1.17-4.28 1.76-5.18 1.59a2.69 2.69 0 01-2.24-2 12.73 12.73 0 01-.1-6.67z" fill="#ffd4a9"/><path d="M321.86 96.11l.26 1.42c.11.55.06.85-1 1.53s1.68 2.08 3.49 1.94 3.85-1.22 4.42-2.4.57-2.85-.22-2.81c-1.15.06-2 .35-2.16 0a15.2 15.2 0 01-.26-1.8z" fill="#ffd4a9"/><path d="M327.21 93.49a6.15 6.15 0 002.06-4.41 5.68 5.68 0 00-5-6.23 4.9 4.9 0 00-4.69 2.22 3.08 3.08 0 00.53.73 1.36 1.36 0 00.2 1.24 1.7 1.7 0 01.35 1.38 7.39 7.39 0 00-.08 1.77 1.6 1.6 0 00.86 1.2 7.53 7.53 0 01.42-1.93 1.07 1.07 0 011.93.09 2.65 2.65 0 01-.11 2.31c-.25.78-1 .49-1.23.67a1.34 1.34 0 001 1.86 4.27 4.27 0 003-.3 6 6 0 00.76-.6z" fill="#231e1e"/><path d="M320.06 85.81a3.54 3.54 0 01-2.81-1.39c-1.34-1.54-.58-3 1-2.32s4.33.28 5.69.14 5 .6 4.63 3.53z" fill="#231e1e"/><path d="M326.85 96c.08.36.13 1.22-2 1.9s-2.75.37-2.75.37a45.72 45.72 0 00-4.21 2.16c-1.29.91-1.87 3.53-2.05 8-.2 5.13-.22 14.21-.05 15.53a7.83 7.83 0 005.54 2.17c3.11-.26 8.33-3 9.6-5.14 0-4.5-.57-6.69.17-9.29 1.67-5.94 2.55-8.37 1.74-12.32-.66-3.25-1.61-3.65-2.89-3.62s-3.1.24-3.1.24z" fill="#f5fbfb"/><path d="M300.9 125.21a20.13 20.13 0 012.37-.36 4.38 4.38 0 002.06-.36 18.92 18.92 0 004.28-4.15 24.12 24.12 0 003.82-7.31c.89-3.2 1.47-8 1.88-9.83a3 3 0 012.34-2.7c1.26-.39 2.47.47 2.22 3.23a51 51 0 01-2.51 11.15 26.1 26.1 0 01-4.23 7.32 30 30 0 01-5.35 5c-.56.45-.87.91-1.85 1.87a8.43 8.43 0 01-3.45 2.14c-1.12.28-1.56.21-1.72 0s0-.5.45-.7a7.05 7.05 0 002.22-1.13s-1.05.46-1.72.69a7 7 0 01-1.81.36c-.59 0-1.14-.68-.64-.88s.92-.22 1.9-.58a6.74 6.74 0 001.47-.71 12.69 12.69 0 01-2 .41 3 3 0 01-1.63-.17c-.26-.11-.44-.61.21-.78a10.45 10.45 0 002.43-.57c.78-.33 1.27-.68 1.12-.75s-.59.16-1.32.11-1.36-.51-1.3-.9.03-.34.76-.4z" fill="#ffd4a9"/><path d="M318.53 100c-1.7-.26-2.91.51-3.66 3.1s-1.28 4.7-1.28 4.7a4.65 4.65 0 002.86 1.89c2 .49 2.77-.48 2.77-.48s.56-2.71.91-4.55.51-4.34-1.6-4.66z" fill="#f5fbfb"/><path d="M323.52 99.2s-1.4-1.17-2.17-.76l-1.56.88s1.53.19 1.89 1.09c0 0 1.55-.14 1.84-1.21zM329.93 97.89s-.36-1.94-1.31-2.12a3.27 3.27 0 00-1.76.18 7.68 7.68 0 01.91 2z" fill="#6faac0"/><path d="M327.86 97.63c-2.73.76-6 1.93-6.76 3.69s-2.05 12.86-.4 15a6.25 6.25 0 005.42 2.7c1.79-.06 7-2.27 8.4-4.81s-.38-18.31-6.66-16.58z" fill="#94cbe0"/><path d="M327.82 111.8l.32 3.49c.06.67 3.91-1 4.71-2.23.51-.78.13-3.19 0-3.71s-4.57 1.58-5.03 2.45zM321.28 101a3 3 0 00-.19.35c-.72 1.76-2.06 12.87-.41 15a6.59 6.59 0 003.35 2.44c1.28.2 1.93-.87 1.87-2.44a109 109 0 00-1.5-11.43c-.74-3.68-2.13-4.35-3.12-3.92z" fill="#6faac0"/><path d="M324.26 104.43c.27.76 1.46 1.94 3.95.79s4.35-2.79 4.84-3.87c0 0 .24 1.66-2.68 3.61s-5.27 2.18-6.11-.53z" fill="#6faac0"/><path d="M122.55 300c9.77 0 17.69-4.57 17.69-10.21s-7.92-10.2-17.69-10.2-17.68 4.57-17.68 10.2S112.79 300 122.55 300z" fill-opacity=".15"/><path d="M127.33 212.09a3.49 3.49 0 00.71-3.71 4.86 4.86 0 00-6-2.88c-2.39.53-4.39 1.31-4.39 3.23z" fill="#543354"/><path d="M121.31 247.66a19.07 19.07 0 00-2-1.39 4.27 4.27 0 01-1.68-1.25 12.63 12.63 0 01-2.69-5.09 18.93 18.93 0 01-.29-7.13c.63-3.26 2.25-7.76 2.74-9.63a3 3 0 00-.88-3.46c-1-.92-2.42-.69-3.43 1.89a52 52 0 00-2.77 11.09 17.37 17.37 0 00.81 7.41 41.49 41.49 0 002.8 6.15 18.31 18.31 0 011.14 2.57 8.58 8.58 0 002.13 3.46c.86.76 1.3.9 1.53.79s.26-.44-.09-.83a6.8 6.8 0 01-1.48-2s.73.89 1.22 1.39a7.22 7.22 0 001.46 1.13c.53.3 1.32-.1 1-.5s-.73-.62-1.44-1.36a7.11 7.11 0 01-1-1.3 13.11 13.11 0 001.62 1.28 3 3 0 001.53.58c.3 0 .68-.36.18-.8a9.58 9.58 0 01-1.93-1.6c-.53-.64-.82-1.18-.65-1.18s.45.4 1.13.7 1.43.16 1.56-.22.11-.36-.52-.7z" fill="#ffa8a7"/><path d="M116.38 219.07c1.37.23 1.7 1.21 1.41 3.39a56 56 0 01-2 7.33s-.68.52-2.63.05a6.61 6.61 0 01-2.61-1.05s1.27-5 2-6.84 1.61-3.23 3.83-2.88z" fill="#aacaf9"/><path d="M116 229.09a8.7 8.7 0 01-2.59-.1 7.49 7.49 0 01-2.66-1.07l-.33 1.11a5.82 5.82 0 002.69 1.09c2 .39 2.61 0 2.61 0z" fill="#7fa8e6"/><path d="M125.93 287.83v1.55c0 .72-.18 2 .62 2.4a2.13 2.13 0 002.46-.13 18.25 18.25 0 012.79-2.42 7 7 0 002.91-2.83c.48-1.19.31-2.17-.43-2.6-1.06-.62-4.23 2.33-5 1.85s-3.35 2.18-3.35 2.18z" fill="#aacaf9"/><path d="M113.71 247.12l7.9 26.32 4.31 14.39s2.08.63 3.17-2.24l-2-16.67-2.24-18.31z" fill="#69a38e"/><path d="M121.62 273.44l4.31 14.39s2.07.63 3.17-2.24l-2-16.67z" fill="#4c7c6b"/><path d="M119.82 292.56c-1.13-.17-1.91-4.38-1.56-5.68l-2.8-1.33a4.87 4.87 0 01-2 1.19 2.32 2.32 0 00-.57.37 1.64 1.64 0 000 2.25c.25.36.55.67.83 1a12.21 12.21 0 011.53 2.2c.48 1 .76 2.54 2.31 2.87a3.45 3.45 0 002.08-.27 10 10 0 001.9-1.13c.46-.44-.08-1.63-1.72-1.47z" fill="#aacaf9"/><path d="M113.71 247.12c-.84-3.49-.06-5.1-.13-4.85l15.13 5.35c.27 5.76 1.13 11.82.7 20.48-.12 2.38-3.22 6.51-5.69 10.08s-5.5 8.94-5.5 8.94a2.49 2.49 0 01-2.91-1.43s2.63-7.36 3.47-10c1.84-5.7 4.29-7.36 4.29-7.36s-.49-2.37-1-5.3c-.61-3.43-1.92-10.05-1.92-10.05s-5.59-2.38-6.44-5.86z" fill="#69a38e"/><path d="M122.55 265.65l-2.38-12.94a18.21 18.21 0 01-4.69-2.61c.53 1.13 2 2.05 3.35 3.21 1.11.97 3.72 12.34 3.72 12.34z" fill="#4c7c6b"/><path d="M127.23 211.39c-.47-2.85-2.55-5-5.49-4.78a5.67 5.67 0 00-5.27 6A5.57 5.57 0 00119 217a5.57 5.57 0 00.47 1.24c1.06 1.21 4.21 1.91 5.1 1.78a2.7 2.7 0 002.32-1.94c.93-2.29.59-5.28.34-6.69z" fill="#ffa8a7"/><path d="M123.6 220l-.31 1.4c-.13.56-.1.85 1 1.57s-1.75 2-3.56 1.82-3.8-1.37-4.32-2.57-.47-2.87.32-2.8c1.15.1 2 .42 2.15.09a15.76 15.76 0 00.34-1.79z" fill="#ffa8a7"/><path d="M117.89 217.09c-1-1.87-1.39-2.26-1.71-4.06s-.1-4.08 1.51-4.29a5.61 5.61 0 014.06-2.12 4.85 4.85 0 014.6 2.38 3.24 3.24 0 01-.56.71 1.33 1.33 0 01-.25 1.23 1.72 1.72 0 00-.4 1.37 7.46 7.46 0 010 1.77 1.6 1.6 0 01-.9 1.16 7.9 7.9 0 00-.35-2 1.06 1.06 0 00-1.93 0 2.26 2.26 0 000 2.31c.58 1.14 1.21.72 1.21.72.24.19-.55 2.52-1.15 2.92-1.08.68-2.4-.2-3-.56a7.27 7.27 0 01-1.13-1.54z" fill="#543354"/><path d="M118.68 219.58c-.35.79 0 1.42 2.17 2.18s2.47.27 2.47.27a43 43 0 014.12 2.32c1.27 1 1.74 3.6 1.76 8 0 5.15-.3 14.21-.52 15.52a8.69 8.69 0 01-5.49 1.31c-3.1-.37-8.67-3.47-9.86-5.65 0-4.16.13-7.3.09-9-.14-6.17-1.23-7.64-.27-11.56.78-3.23 1.65-4.07 2.94-4a11.48 11.48 0 012.59.61z" fill="#f5fbfb"/><path d="M141.07 250.91a19.54 19.54 0 00-2.32-.63 4.46 4.46 0 01-2-.6c-.79-.46-2.43-2.54-3.76-4.64a24.09 24.09 0 01-2.92-7.7c-.52-3.29-.52-8.07-.7-10a3 3 0 00-2-3c-1.21-.54-2.52.17-2.59 3a51.6 51.6 0 001.22 11.37 25.84 25.84 0 003.34 7.77A29.83 29.83 0 00134 252c.51.5.76 1 1.61 2.08a8.61 8.61 0 003.17 2.54c1.07.41 1.52.39 1.71.22s.1-.5-.38-.74a7 7 0 01-2.07-1.39s1 .59 1.62.88a6.54 6.54 0 001.76.58c.6.1 1.21-.55.75-.8s-.9-.33-1.83-.79a7 7 0 01-1.36-.89 13.09 13.09 0 001.95.65 2.86 2.86 0 001.63 0c.28-.09.51-.57-.1-.81a10.67 10.67 0 01-2.36-.84c-.72-.43-1.17-.83-1-.88s.56.23 1.3.27 1.4-.34 1.39-.73-.01-.29-.72-.44z" fill="#ffa8a7"/><path d="M126.33 224c1.39-.12 2.67.4 3.14 2.54a53.86 53.86 0 01.61 7.59s-.47.72-2.46.94a6.77 6.77 0 01-2.83-.1s-.49-5.12-.44-7.11.51-3.73 1.98-3.86z" fill="#f5fbfb"/><path d="M130.05 233.39a8.73 8.73 0 01-2.48.78 7.33 7.33 0 01-2.86-.1l.08 1.16a5.82 5.82 0 002.9.11c2-.3 2.44-.91 2.44-.91z" fill="#9d83c4"/><path d="M121.68 223s1.71-1 2.47-.53l1.47.82s-1.74.1-2.15 1c0-.06-1.54-.29-1.79-1.29zM115.34 221.41s.78-2.1 1.73-2.26a2.17 2.17 0 011.61.43 6.25 6.25 0 00-1.18 1.94z" fill="#5d7aba"/><path d="M117.42 221.23c2.69.86 6 2.15 6.62 3.93s1.58 12.93-.15 15a6.26 6.26 0 01-5.53 2.5c-1.78-.12-6.91-2.53-8.21-5.11s1.06-18.28 7.27-16.32z" fill="#7fa8e6"/><path d="M117.86 235.38s-.48 3.76-.61 4.64-5.2-1.57-6.19-3.21c-.65-1.05 0-4.26.2-4.93s6.03 2.32 6.6 3.5zM123.86 224.8a2 2 0 01.17.37c.65 1.78 1.58 12.93-.15 15a6.58 6.58 0 01-3.44 2.32c-1.29.15-1.89-.94-1.78-2.51a107.5 107.5 0 011.92-11.37c.88-3.61 2.3-4.24 3.28-3.81z" fill="#6f89d1"/><path d="M120.59 228.65c-.11.79-.8 2-3.37 1.39s-4.9-1.85-5.56-2.8c0 0 .36 1.6 3.47 3s5.15 1.21 5.46-1.59z" fill="#5d7aba"/><path d="M17.68 236.21c9.77 0 17.69-4.57 17.69-10.2s-7.92-10.21-17.69-10.21S0 220.37 0 226s7.92 10.21 17.68 10.21z" fill-opacity=".15"/><path d="M18.77 139a2.85 2.85 0 00-2.35-.64c-2.39.28-3.79 2-3.68 6.57s.24 7.38 0 8.34 2.47 3.1 4.78 2.09S18.77 139 18.77 139z" fill="#180d2b"/><path d="M19 138.81a5.69 5.69 0 00-2.64 1.54 2.33 2.33 0 011.35-1.57 1.43 1.43 0 011.29.03z" fill="#69a38e"/><path d="M39 179.2a18.46 18.46 0 00-2.31-.65 7.26 7.26 0 01-2.26-.53c-.79-.32-2.55-2.29-3.91-4.36a24.28 24.28 0 01-3-7.64 56.77 56.77 0 01-.62-10c.1-2-.77-2.86-1.82-3.3-1.22-.52-2.1-.13-2.14 2.65A51.63 51.63 0 0024 167a25 25 0 003.31 7.69 30.55 30.55 0 004.75 5.64c.52.49.78 1 1.65 2.06a8.36 8.36 0 003.2 2.49c1.07.4 1.53.37 1.7.19s.09-.5-.39-.74a7.34 7.34 0 01-2.09-1.36s1 .57 1.64.86a7.53 7.53 0 001.76.55c.6.09 1.2-.56.74-.81s-.91-.32-1.83-.76a6.81 6.81 0 01-1.38-.87 12.52 12.52 0 002 .62 3 3 0 001.63 0c.27-.09.5-.56-.12-.8a10.12 10.12 0 01-2.37-.82c-.73-.41-1.18-.81-1-.86s.57.22 1.31.25 1.39-.36 1.38-.75-.22-.24-.89-.38z" fill="#ba8870"/><path d="M25.28 152.65a2.89 2.89 0 011.72 2.78c.1 1.63.37 5.27.37 5.27s-1.06 1.59-4.3.84c0-.15-.42-5.65-.09-7.34s.79-2.09 2.3-1.55z" fill="#94cbe0"/><path d="M18 216.78a10.06 10.06 0 01-.45 1.29 5.8 5.8 0 00-.5 2c0 .5 1.08 1.36 1.83 1.58a4.83 4.83 0 012.18 1.83 4.38 4.38 0 003.17 1.75c1.08 0 2.33 0 2.65-.43s.05-.94-2-2.87-3.36-3.13-3.85-4.72zM14.83 222.71a4 4 0 00-.56 2.56 14.91 14.91 0 01-.17 3.56 6.52 6.52 0 001.14 4 1.66 1.66 0 002.88-.47 6.69 6.69 0 00.3-4.25c-.39-1.5.12-2.65-.12-3.65a8.91 8.91 0 00-.61-1.69h-2.86z" fill="#1b2259"/><path d="M12.77 178.13c-1.1 4.72.35 12.19.59 16.06s.59 8.38.59 8.38a30 30 0 00-1.13 7.22c.06 3.34 2 12.92 2 12.92a2.66 2.66 0 002.85 0s.49-8.29 1-12.12c.47-4 .63-6.93 1-9.27.52-2.92 1.38-16.27 1.38-16.27l.46.13 1.05 13.13a19.49 19.49 0 00-2.05 4.69c-.61 2.36-2.51 13.77-2.51 13.77a2.45 2.45 0 003.05.48s6.49-15.41 7.31-16.82 1-19-.39-23.09zM17.4 148.78s.25 4.44.16 4.76-1.74.63-2.21 1 2.39 4.89 3.85 5.56 6-1 6.32-3.27c.3-2.07-1.28-3.69-1.89-4.26a9.64 9.64 0 00-1.25 0l-.13-2.15c-1.97-.65-4.85-1.64-4.85-1.64z" fill="#ba8870"/><path d="M16.78 154c-1.25.19-2.68.85-2.87 1.53a14.74 14.74 0 00.33 7.41 48.92 48.92 0 002.94 6 12 12 0 009.07-1.21 28.6 28.6 0 00.46-4c4-3.49.61-7.81-2.79-11.18a7.12 7.12 0 00-1.22 0 8.73 8.73 0 011.86 2.51 2.29 2.29 0 01-.95 3.12c-1.58.69-2.73.27-4.06-1.17-.9-1.01-1.33-2.24-2.77-3.01z" fill="#94cbe0"/><path d="M22.36 152.15l-.1-1.74-1.41-.41-3.45-1.17s0 .8.06 1.39c0 0 .14 1.52 2.65 2.69.44.16 2.11.33 2.25-.76z" fill="#8e6555"/><path d="M25.71 143.3c-.45-2.85-2.49-5-5.44-4.84a5.66 5.66 0 00-5.34 6 5.59 5.59 0 002.47 4.34 5.15 5.15 0 00.46 1.24c1 1.22 3.8 2 4.71 2s1.47-.73 2.21-1.94a9.8 9.8 0 00.93-6.8z" fill="#ba8870"/><path d="M25.28 141a5.6 5.6 0 00-5.87-2.44 5.72 5.72 0 00-4.56 4.94 5.78 5.78 0 002.56 5.25c-.06-.19-1.55-2.4 0-2.89a1.91 1.91 0 01.32 1.15.71.71 0 00.59-1l-.14-.68a2.6 2.6 0 01.44-2 2.33 2.33 0 00.4-1.85 7.62 7.62 0 004.3.33 3.79 3.79 0 001.96-.81z" fill="#180d2b"/><path d="M17.4 148.78s-.14.28-.68.31c-1 0-2.24-1.86-1.41-3.17a1.34 1.34 0 012.07 0z" fill="#ba8870"/><path d="M16.88 168.35c.3.58.35 1.21-.67 2.68s-3.06 4.65-3.44 7.1a8 8 0 005.46 3.18c5.05.79 8.82-1.42 10-2.71a33.6 33.6 0 00-.95-5.95 42 42 0 01-1-4.93c-.23-1.79-9.4.63-9.4.63z" fill="#94cbe0"/><path d="M17.07 169.11s5.75 2.85 9.34-.35c0 0 3.53 11.42 4.57 18.26 0 0-2.29 4.69-11.45 4-9.39-.73-12.32-7.27-12.32-7.27 2.69-7.22 8.79-11.19 9.86-14.64z" fill="#c4d9ff"/><path d="M22.52 152.57s1.81 1 2.25 4.15a30.76 30.76 0 01-1.06 8.48c-2.37 8.43-3.91 11.43-3.91 11.43l1 .53a103.94 103.94 0 004.37-14c1.14-5.77.91-9-1.62-10.6a3.06 3.06 0 00-1.03.01z" fill="#598474"/><path d="M12.12 174.57c1.09-.75 8.08 2.07 8.7 2.59s1.68 6.19 1.63 7.23-1.33 1.92-2.81 2.27-8.11-1.61-10.17-3.66 2.24-8.14 2.65-8.43z" fill="#598474"/><path d="M20.44 176.93c-.57 0-1.62 5.22-2 6.78s-.2 3.49 2 2.7c1.13-.43 2-1.18 2-2 .05-1-1-6.71-1.63-7.23a2.21 2.21 0 00-.37-.25z" fill="#69a38e"/><path d="M16.58 178.55a18.32 18.32 0 00-1.87-1.55 4.64 4.64 0 01-1.71-1.53 19.09 19.09 0 01-1.72-5.59 7.53 7.53 0 011.32-5.95c2-3 3-4.17 3.93-5.58s.88-2.77.11-3.59c-.92-1-2.44-.44-3.94 1.6a32 32 0 00-4.25 6.69c-.75 1.67-1.34 3.32-.71 7a28.75 28.75 0 002.08 6.76c.27.66.32 1.22.7 2.54a8.66 8.66 0 002 3.55c.84.79 1.26.94 1.49.85s.28-.42-.06-.83a6.86 6.86 0 01-1.39-2.09s.69.93 1.16 1.44a6.35 6.35 0 001.41 1.2c.51.31 1.32 0 1-.45s-.7-.66-1.38-1.43a7.14 7.14 0 01-.92-1.34 11.53 11.53 0 001.56 1.35 3 3 0 001.5.64c.29 0 .68-.32.21-.78a10 10 0 01-1.85-1.68c-.51-.68-.78-1.22-.61-1.2s.45.42 1.1.75 1.43.22 1.57-.16-.13-.17-.73-.62z" fill="#ba8870"/><path d="M16.55 154.52c-.69-.53-1.85-.48-3.3.89A30 30 0 009.81 160a3.75 3.75 0 003.79 2.8s1.07-1.75 2.1-3.09 1.56-2.24 1.6-3.17a2.36 2.36 0 00-.75-2.02z" fill="#94cbe0"/><path d="M239 114.74c10.3 0 18.66-4.82 18.66-10.77S249.28 93.21 239 93.21 220.32 98 220.32 104s8.35 10.74 18.68 10.74z" fill-opacity=".15"/><path d="M235.13 16.88s-1-.18-1.92 1.4-.58 6-1.14 8.77-1.86 4.26-2.33 6.48.27 5.92 5.6 6.59 9.44-1.19 10.7-2.89 1.3-5.3 0-7.26-2.29-3.52-2.25-6z" fill="#ffd7b0"/><path d="M252.18 9a7.58 7.58 0 011.17 2c.31.79-.06 3.5-1 5.81a22.4 22.4 0 01-2.53 5 54 54 0 01-6.5 7.14 1.52 1.52 0 01-1.36.49 4.81 4.81 0 00.22 3.1c.38 1 2.6 3 2.94 1.42.08-.38.1-1.36.46-1.69a48.25 48.25 0 007.54-8.42 19.24 19.24 0 002.45-5.36 24.14 24.14 0 001-7.42c0-.71.19-1.25.36-2.61a8.7 8.7 0 00-.4-4c-.46-1.06-.79-1.37-1-1.37s-.42.28-.27.78a7.21 7.21 0 01.46 2.46s-.27-1.13-.5-1.78a7.12 7.12 0 00-.81-1.55c-.34-.49-1.23-.48-1.09 0s.39.87.71 1.85a6.72 6.72 0 01.32 1.6 12.53 12.53 0 00-.9-1.85 2.91 2.91 0 00-1.13-1.18c-.25-.14-.77 0-.5.64a10 10 0 011 2.27c.2.82.23 1.42.08 1.34" fill="#ffa8a7"/><path d="M241.68 29.44a12.24 12.24 0 004.62-4.89c.88-1.59 1.56-4.07 3.87-3.07a2.89 2.89 0 003.39 1.82 6 6 0 01.21 2.78c-.26 1.47-4.48 5.79-8.51 7.19.01 0-4.64-.92-3.58-3.83z" fill="#192370"/><path d="M240.83 95.45a12 12 0 01-.25 1.34 5.71 5.71 0 00-.19 2.09c.11.49 1.27 1.19 2 1.29a4.76 4.76 0 012.42 1.49 4.5 4.5 0 003.39 1.27c1.09-.12 2.31-.39 2.57-.82s-.1-.93-2.38-2.55-3.79-2.59-4.51-4.09zM233.32 99.66a4 4 0 00-.57 2.56 14.43 14.43 0 01-.17 3.56 6.61 6.61 0 001.14 4 1.67 1.67 0 002.89-.47 6.76 6.76 0 00.29-4.25c-.38-1.5.12-2.65-.12-3.66a8.86 8.86 0 00-.6-1.69h-2.86z" fill="#2d2979"/><path d="M231.25 55.08c-1.1 4.72.35 12.18.6 16.06s.58 8.37.58 8.37a30.17 30.17 0 00-1.13 7.23c.06 3.34 2 12.91 2 12.91a2.62 2.62 0 002.84 0s.5-8.28 1-12.11c.47-4 .63-6.93 1-9.27.51-2.92 1.37-16.27 1.37-16.27l.46.13 1.37 15.37a11.75 11.75 0 00-1 4c0 2.44.48 13.93.48 13.93a2.8 2.8 0 003.09 0s2.47-15.76 2.81-17.61 1.08-19.43-.31-23.55zM235.88 25.73s.26 4.44.17 4.76-1.75.63-2.22 1 2.4 4.9 3.86 5.57 6-1 6.32-3.27c.29-2.07-1.29-3.7-1.89-4.26a9.73 9.73 0 00-1.25 0l-.13-2.15c-1.98-.66-4.86-1.65-4.86-1.65z" fill="#ffa8a7"/><path d="M235.26 30.92c-1.25.19-2.68.84-2.87 1.53a14.86 14.86 0 00.33 7.41 48.92 48.92 0 002.94 6 11.91 11.91 0 009.07-1.21 28.6 28.6 0 00.46-4c4-3.49.61-7.81-2.78-11.18a7.25 7.25 0 00-1.23 0A8.49 8.49 0 01243 32a2.29 2.29 0 01-.95 3.12c-1.58.69-2.72.27-4.06-1.17-.86-.95-1.29-2.22-2.73-3.03z" fill="#f5fbfb"/><path d="M236.05 30.49a5.26 5.26 0 003.5 1.77s1.68 2.53 1.68 2.4-.38-2.77-.38-2.77a2.77 2.77 0 000-2.38 3.78 3.78 0 011.54 0 16.14 16.14 0 013.4 3.43 7.3 7.3 0 011.21 5.44 6.16 6.16 0 01-1.26 2.35s1.72 11.81 2.42 16.93-.05 27.12 0 30.52c-2.28 4.79-11.7 8.54-15.42 8.66s-9-1.73-8.45-4.61 2.75-26.06 3.82-32.14 4.89-10.61 5.68-11.69 1.52-1.67 1-3.16-2.65-5.3-3.05-7.18-.94-4.7.35-5.88a9.51 9.51 0 013.96-1.69z" fill="#192370"/><path d="M240.85 29.11l-.1-1.74-1.41-.46-3.45-1.17s0 .8.06 1.39c0 0 .14 1.52 2.64 2.69.41.18 2.12.37 2.26-.71z" fill="#f28f8f"/><path d="M244.19 20.26c-.44-2.85-2.49-5-5.44-4.84a5.65 5.65 0 00-2.87 10.32 5.62 5.62 0 00.46 1.24c1 1.22 3.8 2 4.71 2s1.47-.73 2.21-1.95a9.78 9.78 0 00.93-6.77z" fill="#ffa8a7"/><path d="M239.4 18.31A4.69 4.69 0 00242 21c2 .8 2.63.37 2.63.37S245.31 19 244 18s-4.6.31-4.6.31z" fill="#ffd7b0"/><path d="M244 18.48a5.54 5.54 0 00-10.34.94 5.64 5.64 0 002.25 6.31c-.06-.2-1.55-2.41 0-2.9 0 .21.06 1 .13 1.5 0 0 .75.05.73-.89v-.88a2.74 2.74 0 01.38-1.73 3.44 3.44 0 00.35-.85 2.63 2.63 0 011.5-1.74c.75-.25 1.78-.18 2.9 1.07 1.15-1.81 1.7-1.2 2.1-.83z" fill="#ffd7b0"/><path d="M235.88 25.73s-.14.28-.68.31c-1 .05-2.24-1.86-1.41-3.16a1.34 1.34 0 012.07 0zM236.19 56a16.66 16.66 0 00-1.95-1.37 4.69 4.69 0 01-1.84-1.45 18.8 18.8 0 01-2.08-5.47 7.49 7.49 0 01.94-6c1.78-3.14 2.73-4.36 3.56-5.82s.71-2.82-.12-3.59-2.08-.87-3.44 1.26a37.28 37.28 0 00-4.19 7.44c-.64 1.72-1.13 3.4-.26 7a28.44 28.44 0 002.52 6.61c.32.64.39 1.19.85 2.48a8.4 8.4 0 002.2 3.41c.88.74 1.32.87 1.54.76s.25-.44-.11-.83a6.93 6.93 0 01-1.52-2s.75.88 1.25 1.37A7.17 7.17 0 00235 61c.53.28 1.32-.12 1-.53s-.74-.6-1.47-1.34a6.8 6.8 0 01-1-1.27 12 12 0 001.64 1.24 2.87 2.87 0 001.54.55c.29 0 .66-.36.16-.8a10.4 10.4 0 01-2-1.56c-.55-.63-.84-1.15-.68-1.15s.46.4 1.15.67 1.44.13 1.56-.25-.08-.23-.71-.56z" fill="#ffa8a7"/><path d="M233.62 17.67v-4.09a2.61 2.61 0 011.55-2.19 8.35 8.35 0 017.48 0 2.62 2.62 0 011.55 2.19v4.07a2.58 2.58 0 01-1.55 2.17 8.28 8.28 0 01-7.48 0 2.57 2.57 0 01-1.55-2.15z" fill="#344593"/><path d="M233.62 17.67v-4.09a2.61 2.61 0 011.55-2.19 8.35 8.35 0 017.48 0 2.62 2.62 0 011.55 2.19v4.07a2.58 2.58 0 01-1.55 2.17 8.28 8.28 0 01-7.48 0 2.57 2.57 0 01-1.55-2.15z" fill="#192370"/><path d="M238.9 8.52l8.74 5-8.74 5-8.72-5z" fill="#192370"/><path d="M234.55 16.08l4.3-2.46a.15.15 0 01.21.06.15.15 0 01-.06.21l-4.15 2.37z" fill="#031f60" opacity=".5" style="isolation:isolate"/><path d="M247.64 13.56v.35l-8.74 5v-.36z" fill="#213481"/><path d="M230.18 13.56v.35l8.72 5v-.36z" fill="#293a88"/><path d="M244.21 15.89l-5.31 3.61-5.28-3.6 5.28 3z" fill="#031f60" opacity=".5" style="isolation:isolate"/><path d="M234 20.39a.54.54 0 00.48 0l.39 2.55c0 .48-1.25.48-1.25 0z" fill="#f95da4"/><path d="M234 21.84l-.09 1.4h-.08zM234.56 23.25L234.4 21l.24 2.23zM234.28 23.3h-.08v-1.8z" fill="#031f60" opacity=".15" style="isolation:isolate"/><path d="M234.24 20.36a.15.15 0 00.15-.15v-3.6a.47.47 0 01.23-.4l4.38-2.5a.15.15 0 10-.15-.27l-4.38 2.49a.79.79 0 00-.38.67v3.6a.15.15 0 00.15.16z" fill="#bbdfff"/><path d="M234.57 20.21a.34.34 0 10-.33.33.32.32 0 00.33-.33z" fill="#f95da4"/><path d="M233.91 20.23a.26.26 0 00.37.13.29.29 0 000-.48.33.33 0 010 .66.32.32 0 01-.37-.31z" fill="#031f60" opacity=".15" style="isolation:isolate"/><path d="M234.27 31.67c-1.19-.43-2.51.42-3.86 2.12s-4.37 5.39-4.92 6.7.84 3.6.84 3.6 1.34-.68 3.74 1.1a2.42 2.42 0 002-.76c1.16-1 3-7 3.49-8.89s-.31-3.54-1.29-3.87z" fill="#192370"/><path d="M226.33 44.1s.52-.55 2.15 0 1.6 1.1 1.6 1.1a4.13 4.13 0 010 1.09 5.82 5.82 0 00-3.7-.66 2.85 2.85 0 01-.05-1.53zM250.17 21.48a2.59 2.59 0 001.42 1.7 2.37 2.37 0 002 .12 1.64 1.64 0 00.66-1.18 5.72 5.72 0 01-3.49-1.57 2.4 2.4 0 00-.59.93z" fill="#122571"/><path d="M254 7.59a3.6 3.6 0 00-1.85 2.82s.76-1.09 1.29-1.1a7 7 0 00.3 2s.27-2.18 1.18-3z" fill="#d83068"/><path d="M250.5 0a1.85 1.85 0 00-1.12.28 4.86 4.86 0 00-2.19 3.81 1.6 1.6 0 00.55 1.35 55.24 55.24 0 006 2.48l2.42-4.25S251.27 0 250.5 0z" fill="#ffd7b0"/><path d="M252.92 7.66c-.15-.08-.23-.56-.71-1.12s-1.23-.76-1.5-.48 0 .25.36.87A18 18 0 00252.19 9" fill="#ffa8a7"/><path d="M254.87 3.71A4 4 0 00253 6.87a1.09 1.09 0 00.65 1.1c.32.14 1.24.74 1.74 1 1-.58 2.06-3.32 2.06-4.49a9.05 9.05 0 01-1.37-.8 1 1 0 00-1.21.03z" fill="#e94372"/><path d="M257.84 4.64h-.1a.93.93 0 00-1 .07 4 4 0 00-1.82 3.16 1.26 1.26 0 00.52 1.13 35.7 35.7 0 003.82 3.51c.64.25 3.45-5.14 3.45-5.14a47.63 47.63 0 00-4.87-2.73z" fill="#ffd7b0"/><path d="M261 7.39a4.82 4.82 0 00-2.19 3.8c0 1.4 1 2 2.19 1.27a4.83 4.83 0 002.2-3.8c-.05-1.4-1.03-1.98-2.2-1.27z" fill="#f4b887"/></svg>